<?xml version="1.0" encoding="UTF-8" standalone="no"?>
<!-- Created with Inkscape (http://www.inkscape.org/) -->

<svg
   width="87.177788"
   height="26.84206"
   viewBox="0 0 23.065789 7.1019618"
   version="1.1"
   id="svg1"
   xmlns="http://www.w3.org/2000/svg"
   xmlns:svg="http://www.w3.org/2000/svg">
  <defs
     id="defs1" />
  <g
     id="g3"
     transform="scale(0.73993016)">
    <g
       id="g1"
       transform="matrix(0.18936022,0,0,0.23148504,-74.541826,-69.155289)">
      <g
         id="g5">
        <path
           id="text1-3"
           style="-inkscape-font-specification:'New Amsterdam';fill:#000000;stroke-width:2.05513"
           d="m 497.93399,298.75176 c -0.10649,0.006 -0.21294,0.012 -0.31936,0.0186 v 41.39179 h 17.04599 l -0.18655,-7.74371 -10.78901,1.20974 0.17281,-34.87659 c -1.52095,-0.0135 -3.91454,0.003 -5.91264,0.002 z" />
        <path
           id="text1-3-3"
           style="-inkscape-font-specification:'New Amsterdam';fill:#000000;stroke-width:1.75621"
           d="m 416.51487,310.49199 0.0444,29.67183 h 17.04599 l -0.18655,-5.6549 -10.78901,0.88342 -0.057,-24.90035 c -3.46171,-0.006 -4.0416,-0.006 -6.05784,0 z" />
        <path
           style="font-size:50.5495px;line-height:1.25;font-family:'New Amsterdam';-inkscape-font-specification:'New Amsterdam';fill:#000000;stroke-width:1.26374"
           d="m 356.0362,376.10165 v -7.02638 q 0,-4.7011 0.4044,-8.99781 0.45494,-4.34725 1.92088,-8.49231 1.51648,-4.14506 4.65055,-8.29012 h 3.63957 q 3.18461,4.09451 4.7011,8.34067 1.51648,4.1956 1.92088,8.54286 0.45495,4.34726 0.45495,8.89671 v 7.02638 h -5.66155 v -6.47033 h -6.41978 v 6.47033 z m 5.611,-11.77803 h 6.36923 q -0.2022,-3.53846 -0.96044,-7.07693 -0.75824,-3.53846 -2.22418,-6.62198 -1.51648,3.18461 -2.27472,6.67253 -0.75825,3.48792 -0.90989,7.02638 z"
           id="text1"
           transform="scale(1.1056486,0.9044465)"
           aria-label="A" />
        <path
           style="font-size:50.5495px;line-height:1.25;font-family:'New Amsterdam';-inkscape-font-specification:'New Amsterdam';fill:#000000;stroke-width:1.26374"
           d="m 394.16047,376.10165 v -32.70552 h 5.7121 v 32.70552 z m 8.59335,0 v -32.80662 h 15.97364 v 5.3077 h -10.31209 v 7.63297 h 7.27912 v 5.35825 h -7.27912 v 9.14946 h 10.31209 v 5.35824 z m 18.90545,0 v -32.80662 h 5.56044 l 8.13847,18.60221 v -18.60221 h 5.7121 v 32.80662 h -5.66155 l -8.13847,-18.60221 v 18.60221 z"
           id="text2"
           transform="scale(1.1056486,0.9044465)"
           aria-label="ien" />
        <path
           style="font-size:50.5495px;line-height:1.25;font-family:'New Amsterdam';-inkscape-font-specification:'New Amsterdam';fill:#000000;stroke-width:1.26374"
           d="m 467.47122,376.10165 v -7.02638 q 0,-4.7011 0.40439,-8.99781 0.45495,-4.34725 1.92088,-8.49231 1.51649,-4.14506 4.65056,-8.29012 h 3.63956 q 3.18462,4.09451 4.70111,8.34067 1.51648,4.1956 1.92088,8.54286 0.45494,4.34726 0.45494,8.89671 v 7.02638 H 479.502 v -6.47033 h -6.41979 v 6.47033 z m 5.61099,-11.77803 h 6.36924 q -0.2022,-3.53846 -0.96044,-7.07693 -0.75824,-3.53846 -2.22418,-6.62198 -1.51648,3.18461 -2.27473,6.67253 -0.75824,3.48792 -0.90989,7.02638 z m 17.79336,11.82858 -1.81978,-0.0505 h -1.87033 v -32.80662 l 1.51648,-0.0505 h 3.89231 q 3.08352,0 5.76264,0.65714 2.72968,0.6066 4.49891,2.42638 1.76923,1.76923 2.02198,5.3077 0,1.06154 -0.15165,2.42637 -0.15165,1.31429 -0.60659,2.62858 -0.45495,1.26373 -1.36484,2.17362 1.56704,1.46594 1.87033,3.48792 0.3033,1.97143 0.3033,3.79121 0,3.38682 -0.70769,5.4088 -0.7077,2.02198 -2.17363,3.03297 -1.41539,0.96044 -3.58902,1.26374 -2.17362,0.30329 -5.1055,0.30329 z m 3.03297,-19.86595 h 0.85934 q 0.45495,0 1.11209,0 0.65714,-0.0505 1.66813,-0.35385 0.96044,-0.25274 1.36484,-1.31428 0.45494,-1.06154 0.45494,-2.27473 0,-1.06154 -0.30329,-1.92088 -0.3033,-0.85934 -0.85934,-1.06154 l -0.0505,-0.0505 q -0.8088,-0.55605 -2.22418,-0.60659 -1.41539,-0.0505 -2.62858,-0.0505 H 492.847 v 7.58242 h 0.55604 z m 0.25275,14.50771 q 1.31428,0 2.42637,-0.2022 1.16264,-0.2022 1.76923,-0.80879 0.5055,-0.55605 0.65715,-1.56704 0.2022,-1.01099 0.2022,-2.17363 0,-0.80879 -0.1011,-1.61758 -0.0505,-0.80879 -0.15165,-1.51649 -0.1011,-0.85934 -1.41539,-1.11208 -1.31428,-0.25275 -2.62857,-0.25275 h -0.75824 l -0.7077,0.0505 H 492.847 l 0.1011,9.14946 h 0.50549 z"
           id="text3"
           transform="scale(1.1056486,0.9044465)"
           aria-label="ab" />
      </g>
    </g>
  </g>
</svg>
