<?xml version="1.0" encoding="UTF-8" standalone="no"?>
<!-- Created with Inkscape (http://www.inkscape.org/) -->

<svg
   version="1.1"
   id="svg1"
   width="218.16508"
   height="64.498505"
   viewBox="0 0 218.16509 64.498503"
   xmlns="http://www.w3.org/2000/svg"
   xmlns:svg="http://www.w3.org/2000/svg">
  <defs
     id="defs1" />
  <g
     id="g1"
     transform="translate(-94.734849,-19.876503)"
     style="fill:#ffffff">
    <path
       style="fill:#ffffff;stroke-width:2.43488"
       d="M 182.39046,83.597134 C 171.66237,82.461088 168.37992,81.118976 155.66261,72.668792 141.953,63.559258 141.67462,63.028279 149.27612,60.48716 c 25.76355,-8.612542 112.66079,-6.386778 114.37456,2.92956 0.35529,1.931435 -22.35368,16.867324 -27.83413,18.306748 -9.40551,2.470336 -38.24158,3.481616 -53.42609,1.873666 z m 41.2138,-1.358571 c 18.36297,-2.460692 14.29544,-6.241815 -8.39845,-7.807071 -30.55856,-2.107704 -57.011,3.733099 -33.81466,7.466412 7.68092,1.236203 33.94825,1.448173 42.21311,0.340659 z M 140.31577,74.542779 C 55.371481,64.510543 97.42716,44.366472 203.42782,44.313012 c 107.50199,-0.05423 149.73367,20.550425 62.18267,30.338633 -14.94625,1.670993 -14.95804,1.664124 -6.72108,-3.918557 17.06614,-11.566757 -2.33467,-17.786127 -55.46159,-17.779475 -50.50674,0.0063 -71.46534,6.29358 -56.11851,16.834679 9.62745,6.612703 9.01422,5.951393 5.47303,5.902115 -1.71415,-0.02386 -7.32411,-0.540284 -12.46657,-1.147628 z M 125.90129,62.660651 c 0,-1.407963 -6.26785,-2.140737 -9.92554,-1.160394 -0.95939,0.257137 -1.55229,0.778284 -1.31755,1.158101 0.55647,0.900379 11.24309,0.902555 11.24309,0.0023 z m 168.29878,-0.0075 c 0,-1.021144 -2.0616,-1.641682 -5.45412,-1.641682 -3.39253,0 -5.45413,0.620538 -5.45413,1.641682 0,0.38269 2.45436,0.695801 5.45413,0.695801 2.99977,0 5.45412,-0.313111 5.45412,-0.695801 z M 162.22967,51.66152 c 0.58924,0 1.07135,-0.350622 1.07135,-0.779161 0,-0.445234 -2.33748,-0.779161 -5.45413,-0.779161 -2.99977,0 -5.45413,0.327336 -5.45413,0.727408 0,0.909953 3.55974,1.526513 6.52548,1.130234 1.23205,-0.164622 2.72219,-0.29932 3.31143,-0.29932 z m 94.57067,-0.779161 c 0,-0.445234 -2.33748,-0.779161 -5.45412,-0.779161 -3.11665,0 -5.45413,0.333927 -5.45413,0.779161 0,0.445237 2.33748,0.779161 5.45413,0.779161 3.11664,0 5.45412,-0.333924 5.45412,-0.779161 z m -48.63383,-2.337483 c 1.01945,-0.186073 1.88417,-0.350622 1.88417,-0.779161 0,-0.445234 -2.33748,-0.779161 -5.45412,-0.779161 -2.99977,0 -5.45413,0.328409 -5.45413,0.729797 0,0.765518 4.26835,1.217258 6.10222,1.088858 0.71241,-0.04989 1.98492,-0.08934 2.92186,-0.260333 z M 94.734849,54.469553 c 0,-18.750192 161.082431,-24.085052 209.188301,-6.928071 6.18709,2.206631 8.97679,4.359652 8.97679,6.928071 v 1.757235 l -3.4635,-1.935787 c -29.58596,-16.535911 -181.65213,-16.535911 -211.238094,0 l -3.463497,1.935787 z M 135.6408,36.811099 c 33.14719,-22.609976 104.59636,-22.572634 136.35319,0.07126 l 2.33748,1.66672 -4.67497,-0.463341 C 227.24965,33.882751 183.5663,33.587781 147.10521,37.258216 132.6444,38.713945 132.83996,38.721572 135.6408,36.811095 Z m 23.92147,-7.839236 c 8.95026,-2.929593 24.42427,-6.020707 33.28961,-6.649986 3.9184,-0.278136 7.32896,-0.83676 7.57904,-1.241388 0.4814,-0.778922 -6.45269,-0.374236 -18.81962,1.098346 -9.42417,1.122176 -24.75041,5.407671 -31.50564,8.809547 -6.489,3.26781 -7.19234,4.190943 -1.41391,1.855769 2.24983,-0.909199 7.14156,-2.651729 10.87052,-3.872288 z"
       id="path1" />
  </g>
</svg>
