<?xml version="1.0" encoding="UTF-8" standalone="no"?>
<svg
   width="1445.736"
   height="763.07642"
   viewBox="0 0 1445.736 763.07641"
   fill="none"
   version="1.1"
   id="svg2"
   preserveAspectRatio="none"
   xmlns="http://www.w3.org/2000/svg"
   xmlns:svg="http://www.w3.org/2000/svg">
  <defs
     id="defs2" />
  <path
     style="fill:#4c5056;stroke:none;stroke-width:1px;stroke-linecap:butt;stroke-linejoin:miter;stroke-opacity:1"
     d="m 972.21981,-14.583942 9.4392,1.0255 -18.95587,-21.586891 47.31286,0.419342 64.7227,10.50498 42.9626,12.397919 11.9646,6.923207 -24.0307,13.045526 11.9061,3.196334 22.6249,-8.099355 1.8764,-18.70038 -46.0082,-12.51942 -47.024,-10.713058 -50.30124,-7.634957 -40.01602,1.092712 -9.57091,10.620326 7.67656,12.111799 z"
     id="path19" />
  <path
     style="fill:#4c5056;stroke:none;stroke-width:1px;stroke-linecap:butt;stroke-linejoin:miter;stroke-opacity:1"
     d="m 889.87942,-59.114044 -0.96627,7.431635 25.94688,-5.179015 32.98887,0.599558 48.72457,2.220451 23.90773,4.110297 59.1883,9.177277 19.5708,4.208291 29.1037,7.98747 31.3566,9.994897 22.0024,7.799785 16.7032,8.21993 8.7728,8.293769 1.5068,-7.095808 -10.8232,-12.265616 -33.4445,-12.827369 -68.8305,-18.413665 -80.7561,-14.871927 -49.56397,-6.124885 -58.14366,-0.409937 z"
     id="path3" />
  <path
     d="m 1010.7064,4.251429 c -15.386,-4.4915 -19.83,-7.3194 -36.189,-23.0267 -17.636,-16.933 -17.902,-17.7826 -6.121,-19.4911 39.93,-5.7905 166.36,20.393 166.41,34.4628 0.01,2.9169 -37.13,18.756602 -45.52,19.414602 -14.4,1.128 -56.81,-5.002502 -78.58,-11.359602 z m 60.77,9.754602 c 27.49,1.248 22.54,-5.351802 -10.21,-13.628102 -44.12,-11.1445 -84.322,-9.5872 -51.4,1.9907 10.9,3.8338 49.24,11.075402 61.61,11.637402 z m -119.886,-34.091802 c -121.515,-37.0788 -54.727,-55.4258 100.226,-27.5329 157.15,28.2879 213.44,69.549702 82.89,60.754702 -22.29,-1.501902 -22.31,-1.515002 -8.79,-7.501702 28,-12.4037 1.28,-26.6139 -76.38,-40.6231 -73.826,-13.3183 -106.12,-9.6587 -86.469,9.7988 12.327,12.2062 11.606,11.0778 6.443,10.0713 -2.5,-0.4872 -10.564,-2.7224 -17.92,-4.9671 z m -17.934,-21.1717 c 0.371,-2.058 -8.597,-4.783 -14.202,-4.3152 -1.47,0.1227 -2.474,0.728 -2.231,1.3451 0.575,1.4629 16.195,4.286 16.433,2.9701 z m 246,44.399 c 0.27,-1.4926 -2.58,-2.9436 -7.54,-3.8388 -4.95,-0.8952 -8.13,-0.5322 -8.4,0.9604 -0.1,0.5594 3.4,1.6647 7.79,2.4562 4.38,0.7916 8.05,0.9816 8.15,0.4222 z m -189.997,-50.8901 c 0.862,0.1555 1.659,-0.2298 1.772,-0.8562 0.117,-0.6508 -3.211,-1.7557 -7.767,-2.5781 -4.385,-0.7916 -8.058,-0.9608 -8.164,-0.376 -0.24,1.3301 4.8,3.1706 9.24,3.374 1.844,0.0845 4.058,0.2808 4.919,0.4363 z m 138.437,23.816 c 0.12,-0.6508 -3.21,-1.7557 -7.76,-2.5781 -4.56,-0.8224 -8.06,-0.9511 -8.18,-0.3003 -0.12,0.6508 3.21,1.7557 7.76,2.5781 4.56,0.8224 8.06,0.9511 8.18,0.3003 z m -70.47,-16.25 c 1.54,-0.003 2.85,-0.0153 2.96,-0.6417 0.12,-0.6508 -3.21,-1.7557 -7.77,-2.5781 -4.38,-0.7916 -8.05,-0.9592 -8.16,-0.3725 -0.2,1.119 5.92,2.9056 8.63,3.2018 1.06,0.1151 2.93,0.3932 4.34,0.3905 z m -167.364,-21.2718 c 4.947,-27.407049 241.804,7.3008 307.594,45.0731 8.46,4.858 11.97,8.7412 11.3,12.4954 l -0.47,2.5686 -4.55,-3.7435 c -38.88,-31.9775 -261.156,-72.1041 -308.765,-55.7407 l -5.573,1.9156 z m 64.451,-15.0172 c 54.413,-24.302099 158.843,-5.393749 199.283,36.0845 l 2.98,3.0531 -6.71,-1.9109 c -60.88,-17.3336 -124.65,-29.2918 -178.913,-33.5479 -21.522,-1.6881 -21.238,-1.6253 -16.64,-3.6788 z m 37.035,-5.146219 c 13.855,-1.9204 37.288,-2.35544 50.418,-0.9359 5.8,0.62742 10.93,0.71085 11.4,0.1854 0.91,-1.01152 -9.33,-2.24973 -27.8,-3.3606 -14.07,-0.84654 -37.601,1.37331 -48.373,4.56327 -10.347,3.06424 -11.619,4.227949 -2.557,2.33946 3.529,-0.73529 11.139,-1.99153 16.912,-2.79163 z"
     fill="#000000"
     id="path1"
     style="stroke-width:0.966552;stroke-dasharray:none" />
  <path
     style="fill:#a0a0a0;stroke:none;stroke-width:0.276213;stroke-dasharray:none"
     d="m 1069.4105,13.734191 c -11.2965,-0.92258 -41.2503,-6.421985 -54.1642,-9.944354 -9.3584,-2.552607 -17.27853,-6.366779 -17.27853,-8.321043 0,-3.253383 17.15613,-3.312571 37.64853,-0.129886 25.7236,3.995134 53.5124,12.429307 53.5124,16.241518 0,0.640003 -1.1872,1.335495 -3.083,1.806105 -2.0563,0.51044 -12.0776,0.71988 -16.6352,0.34766 z"
     id="path8" />
  <path
     style="fill:#f9f9f9;stroke:none;stroke-width:0.276213;stroke-dasharray:none"
     d="m 1174.0027,2.990794 c -5.3809,-0.87648 -10.0019,-2.179193 -10.0019,-2.819636 0,-0.791255 1.2295,-1.125484 4.0008,-1.087558 5.1588,0.0706 11.4308,2.097167 11.4308,3.693484 0,0.323555 -0.4876,0.399866 -2.3576,0.368998 -1.2967,-0.0214 -2.6791,-0.09128 -3.0721,-0.155288 z"
     id="path10" />
  <path
     d="m 7.7541454,761.46094 c -0.5655471,-0.14539 -1.1314617,-0.29105 -1.6977474,-0.437 L 251.06421,683.73129 376.78968,357.50362 1016.9561,1.756556 c 21.5098,4.335023 29.5588,6.684542 48.1593,8.484542 l 343.1325,347.896302 13.445,87.42913 22.3636,300.95748 c -0.526,2.83779 0.078,12.01755 -1.5749,14.44885"
     fill="#52575D"
     id="path2"
     style="fill:#4c5056;fill-opacity:1;stroke:#4c5056;stroke-width:3.336;stroke-dasharray:none" />
  <path
     style="fill:#f9f9f9;stroke:none;stroke-width:0.276213;stroke-dasharray:none"
     d="m 1066.5293,13.311481 c -10.9566,-1.261112 -34.1704,-5.507906 -46.6756,-8.538953 -11.6765,-2.830211 -21.60016,-7.101901 -21.60016,-9.29796 0,-0.736265 0.53033,-1.072032 2.59266,-1.6415 1.5414,-0.425613 3.0316,-0.507171 9.2668,-0.507171 7.7244,0 11.5337,0.272338 20.4142,1.459482 2.8976,0.387346 5.4374,0.639399 5.644,0.560117 0.2066,-0.07928 0.3757,-0.03615 0.3757,0.09584 0,0.131992 0.6751,0.32711 1.5003,0.433595 3.0321,0.391288 17.0997,3.322293 22.7379,4.737488 16.2621,4.081799 28.0579,8.660281 28.0579,10.890556 0,0.843734 -2.1229,1.671866 -5.0849,1.983566 -3.5448,0.37304 -13.3308,0.27361 -17.2288,-0.17506 z"
     id="path14" />
</svg>
