<?xml version="1.0" encoding="UTF-8" standalone="no"?>
<svg
   width="1438"
   height="848.25909"
   viewBox="0 0 1438 848.25909"
   fill="none"
   version="1.1"
   id="svg2"
   sodipodi:docname="Vector2.svg"
   inkscape:version="1.3.2 (1:1.3.2+202311252150+091e20ef0f)"
   xml:space="preserve"
   xmlns:inkscape="http://www.inkscape.org/namespaces/inkscape"
   xmlns:sodipodi="http://sodipodi.sourceforge.net/DTD/sodipodi-0.dtd"
   xmlns="http://www.w3.org/2000/svg"
   xmlns:svg="http://www.w3.org/2000/svg"><defs
     id="defs2" /><sodipodi:namedview
     id="namedview2"
     pagecolor="#ffffff"
     bordercolor="#666666"
     borderopacity="1.0"
     inkscape:showpageshadow="2"
     inkscape:pageopacity="0.0"
     inkscape:pagecheckerboard="0"
     inkscape:deskcolor="#d1d1d1"
     showgrid="false"
     inkscape:zoom="3.4993046"
     inkscape:cx="1017.4879"
     inkscape:cy="40.865262"
     inkscape:window-width="1600"
     inkscape:window-height="771"
     inkscape:window-x="0"
     inkscape:window-y="34"
     inkscape:window-maximized="1"
     inkscape:current-layer="svg2" /><path
     d="m 1004.65,91.486468 c -15.386,-4.4915 -19.83,-7.3194 -36.189,-23.0267 -17.636,-16.933 -17.902,-17.7826 -6.121,-19.4911 39.93,-5.7905 166.36,20.393 166.41,34.4628 0.01,2.9169 -37.13,18.756602 -45.52,19.414602 -14.4,1.128 -56.81,-5.002502 -78.58,-11.359602 z m 60.77,9.754602 c 27.49,1.248 22.54,-5.351802 -10.21,-13.628102 -44.12,-11.1445 -84.322,-9.5872 -51.4,1.9907 10.9,3.8338 49.24,11.075402 61.61,11.637402 z M 945.534,67.149268 c -121.515,-37.0788 -54.727,-55.4258 100.226,-27.5329 157.15,28.2879 213.44,69.549702 82.89,60.754702 -22.29,-1.501902 -22.31,-1.515002 -8.79,-7.501702 28,-12.4037 1.28,-26.6139 -76.38,-40.6231 -73.826,-13.3183 -106.12,-9.6587 -86.469,9.7988 12.327,12.2062 11.606,11.0778 6.443,10.0713 -2.5,-0.4872 -10.564,-2.7224 -17.92,-4.9671 z M 927.6,45.977568 c 0.371,-2.058 -8.597,-4.783 -14.202,-4.3152 -1.47,0.1227 -2.474,0.728 -2.231,1.3451 0.575,1.4629 16.195,4.286 16.433,2.9701 z m 246,44.399 c 0.27,-1.4926 -2.58,-2.9436 -7.54,-3.8388 -4.95,-0.8952 -8.13,-0.5322 -8.4,0.9604 -0.1,0.5594 3.4,1.6647 7.79,2.4562 4.38,0.7916 8.05,0.9816 8.15,0.4222 z m -189.997,-50.8901 c 0.862,0.1555 1.659,-0.2298 1.772,-0.8562 0.117,-0.6508 -3.211,-1.7557 -7.767,-2.5781 -4.385,-0.7916 -8.058,-0.9608 -8.164,-0.376 -0.24,1.3301 4.8,3.1706 9.24,3.374 1.844,0.0845 4.058,0.2808 4.919,0.4363 z m 138.437,23.816 c 0.12,-0.6508 -3.21,-1.7557 -7.76,-2.5781 -4.56,-0.8224 -8.06,-0.9511 -8.18,-0.3003 -0.12,0.6508 3.21,1.7557 7.76,2.5781 4.56,0.8224 8.06,0.9511 8.18,0.3003 z m -70.47,-16.25 c 1.54,-0.003 2.85,-0.0153 2.96,-0.6417 0.12,-0.6508 -3.21,-1.7557 -7.77,-2.5781 -4.38,-0.7916 -8.05,-0.9592 -8.16,-0.3725 -0.2,1.119 5.92,2.9056 8.63,3.2018 1.06,0.1151 2.93,0.3932 4.34,0.3905 z m -167.364,-21.2718 c 4.947,-27.4070496 241.804,7.3008 307.594,45.0731 8.46,4.858 11.97,8.7412 11.3,12.4954 l -0.47,2.5686 -4.55,-3.7435 c -38.88,-31.9775 -261.156,-72.1041 -308.765,-55.7407 l -5.573,1.9156 z m 64.451,-15.0172 c 54.413,-24.3021 158.843,-5.3937496 199.283,36.0845 l 2.98,3.0531 -6.71,-1.9109 c -60.88,-17.3336 -124.65,-29.2918 -178.913,-33.5479 -21.522,-1.6881 -21.238,-1.6253 -16.64,-3.6788 z m 37.035,-5.1462196 c 13.855,-1.9204 37.288,-2.35544 50.418,-0.9359 5.8,0.62742 10.93,0.71085 11.4,0.1854 0.91,-1.01152 -9.33,-2.24973 -27.8,-3.3606 -14.07,-0.84653997 -37.601,1.37331 -48.373,4.56327 -10.347,3.06424 -11.619,4.2279496 -2.557,2.33946 3.529,-0.73529 11.139,-1.99153 16.912,-2.79163 z"
     fill="black"
     id="path1"
     style="fill:#efa3ef;fill-opacity:1"
     inkscape:export-filename="path2.svg"
     inkscape:export-xdpi="96"
     inkscape:export-ydpi="96" /><path
     d="M 0,650.75907 1009.35,95.259068 c 21.51,4.335 32.92,6.200002 51.52,8.000002 l 377.13,339 v 391.5 c -561.522,-49.668 -876.364,-57.606 -1438,14.5 z"
     fill="#52575D"
     id="path2"
     inkscape:export-filename="path2.svg"
     inkscape:export-xdpi="96"
     inkscape:export-ydpi="96"
     style="fill:#52575d;fill-opacity:0" /><path
     style="fill:#e6e6e6;stroke:none;stroke-width:0.285771"
     d="m 964.04869,8.7017531 c 1.93624,-0.9120232 9.2414,-3.0645131 13.00258,-3.8312563 9.92837,-2.0239649 23.69373,-3.3135904 35.43563,-3.3198397 10.9239,-0.00581 31.5962,1.7633487 34.2139,2.9280655 1.3426,0.5974259 -4.449,0.605092 -10.6378,0.014081 -6.7815,-0.6476113 -31.667,-0.7443458 -39.29352,-0.1527409 -8.15237,0.6323994 -18.60015,2.0886519 -28.00557,3.9035233 -1.96467,0.3791045 -4.08652,0.7584259 -4.71522,0.8429364 l -1.14308,0.1536553 z"
     id="path4" /><path
     style="fill:#a0a0a0;stroke:none;stroke-width:0.285771"
     d="m 921.18303,45.664599 c -4.91171,-0.75623 -9.5321,-2.102382 -9.77396,-2.847644 -0.31636,-0.974838 4.18087,-1.300503 7.96275,-0.576619 4.14813,0.793986 7.95529,2.450118 7.95529,3.460585 0,0.542619 -2.47904,0.527964 -6.14408,-0.03632 z"
     id="path5" /><path
     style="fill:#a0a0a0;stroke:none;stroke-width:0.285771"
     d="m 980.48053,39.081307 c -2.81971,-0.214775 -5.94483,-0.747946 -7.56145,-1.290046 -1.7635,-0.59135 -3.29785,-1.509287 -3.29785,-1.972956 0,-0.723659 6.78718,-0.02213 11.55355,1.194184 5.35451,1.366399 4.97391,2.500559 -0.69425,2.068818 z"
     id="path6" /><path
     style="fill:#a0a0a0;stroke:none;stroke-width:0.285771"
     d="m 1048.3512,46.658667 c -4.1457,-0.521981 -9.5734,-2.297945 -9.5734,-3.132443 0,-0.8537 9.1517,0.396522 13.3996,1.830531 3.8364,1.295097 1.7521,2.004289 -3.8262,1.301912 z"
     id="path7" /><path
     style="fill:#a0a0a0;stroke:none;stroke-width:0.285771"
     d="m 1063.3541,100.96923 c -11.2965,-0.92258 -41.2503,-6.421985 -54.1642,-9.944354 -9.35843,-2.552607 -17.27853,-6.366779 -17.27853,-8.321043 0,-3.253383 17.15613,-3.312571 37.64853,-0.129886 25.7236,3.995134 53.5124,12.429307 53.5124,16.241518 0,0.640003 -1.1872,1.335495 -3.083,1.806105 -2.0563,0.51044 -12.0776,0.71988 -16.6352,0.34766 z"
     id="path8" /><path
     style="fill:#a0a0a0;stroke:none;stroke-width:0.285771"
     d="m 1114.65,62.958826 c -3.5669,-0.62701 -6.5013,-1.406485 -7.7337,-2.054352 l -0.8394,-0.441238 0.8444,-0.213126 c 2.3555,-0.594571 14.3046,1.809289 14.6649,2.950234 0.1691,0.535237 -3.181,0.418588 -6.9362,-0.241518 z"
     id="path9" /><path
     style="fill:#f9f9f9;stroke:none;stroke-width:0.285771"
     d="m 1167.9463,90.225833 c -5.3809,-0.87648 -10.0019,-2.179193 -10.0019,-2.819636 0,-0.791255 1.2295,-1.125484 4.0008,-1.087558 5.1588,0.0706 11.4308,2.097167 11.4308,3.693484 0,0.323555 -0.4876,0.399866 -2.3576,0.368998 -1.2967,-0.0214 -2.6791,-0.09128 -3.0721,-0.155288 z"
     id="path10" /><path
     style="fill:#a0a0a0;stroke:none;stroke-width:0.285771"
     d="m 1114.65,62.815772 c -2.4891,-0.440661 -7.0875,-1.683217 -7.8259,-2.11466 -0.7581,-0.443031 3.2297,-0.338785 6.1113,0.159755 3.3214,0.574622 6.918,1.487705 7.8439,1.991363 0.6718,0.365415 0.5491,0.395554 -1.5569,0.382471 -1.2574,-0.0078 -3.315,-0.19633 -4.5724,-0.418929 z"
     id="path11" /><path
     style="fill:#f9f9f9;stroke:none;stroke-width:0.285771"
     d="m 1114.65,62.815772 c -2.6074,-0.461596 -7.1386,-1.700659 -7.8259,-2.139987 -0.3271,-0.209138 0.4118,-0.257143 2.5392,-0.164958 3.2055,0.138908 9.0613,1.305045 11.0022,2.191002 l 1.143,0.521799 -2.2861,-0.0016 c -1.2574,-8.6e-4 -3.315,-0.183692 -4.5724,-0.406291 z"
     id="path12" /><path
     style="fill:#f9f9f9;stroke:none;stroke-width:0.285771"
     d="m 1046.9079,46.279478 c -3.9382,-0.715411 -8.1516,-2.247134 -7.6263,-2.772442 0.8255,-0.825524 14.6421,1.951627 14.6421,2.943082 0,0.365325 -4.6939,0.251159 -7.0158,-0.17064 z"
     id="path13" /><path
     style="fill:#f9f9f9;stroke:none;stroke-width:0.285771"
     d="m 1060.4729,100.54652 c -10.9566,-1.261112 -34.1704,-5.507906 -46.6756,-8.538953 -11.6765,-2.830211 -21.60016,-7.101901 -21.60016,-9.29796 0,-0.736265 0.53033,-1.072032 2.5927,-1.6415 1.54138,-0.425613 3.03157,-0.507171 9.26676,-0.507171 7.7244,0 11.5337,0.272338 20.4142,1.459482 2.8976,0.387346 5.4374,0.639399 5.644,0.560117 0.2066,-0.07928 0.3757,-0.03615 0.3757,0.09584 0,0.131992 0.6751,0.32711 1.5003,0.433595 3.0321,0.391288 17.0997,3.322293 22.7379,4.737488 16.2621,4.081799 28.0579,8.660281 28.0579,10.890556 0,0.843734 -2.1229,1.671866 -5.0849,1.983566 -3.5448,0.37304 -13.3308,0.27361 -17.2288,-0.17506 z"
     id="path14" /><path
     style="fill:#f9f9f9;stroke:none;stroke-width:0.285771"
     d="m 979.54687,38.94498 c -0.35095,-0.09853 -1.66686,-0.335637 -2.92425,-0.526899 -2.47699,-0.376773 -4.93692,-1.142269 -6.08223,-1.892703 -0.62008,-0.406298 -0.65742,-0.50856 -0.26573,-0.727765 1.33174,-0.745278 14.17192,1.726569 14.31092,2.754977 0.0451,0.333998 -4.09762,0.656617 -5.03871,0.39239 z"
     id="path15" /><path
     style="fill:#f9f9f9;stroke:none;stroke-width:0.285771"
     d="m 922.46833,45.768309 c 3.7e-4,-0.117881 -0.33749,-0.214328 -0.75079,-0.214328 -2.18646,0 -10.10784,-2.241009 -10.10784,-2.859572 0,-0.778623 5.79444,-0.770613 9.1093,0.01259 2.53731,0.599493 6.08486,2.160381 6.25756,2.753262 0.0674,0.231236 -0.61556,0.363955 -2.20567,0.428656 -1.26678,0.05154 -2.30293,-0.0027 -2.30256,-0.12061 z"
     id="path16" /><path
     style="fill:#efa3ef;fill-opacity:1;stroke:none;stroke-width:0.412777"
     d="m 954.2305,11.976351 c 1.33033,-0.775507 9.90899,-4.2667266 10.48425,-4.2667266 0.2754,0 0.50072,-0.2291457 0.50072,-0.5092116 0,-0.2800664 0.13976,-0.3920129 0.31056,-0.2487694 0.1708,0.1432435 1.72553,-0.1582726 3.45494,-0.6700355 2.95158,-0.8734202 14.914,-3.450216 16.07831,-3.4633946 0.29235,-0.0033 1.88694,-0.2187193 3.54354,-0.4786897 1.65662,-0.2599704 3.2512,-0.4762821 3.54354,-0.4806925 0.29234,-0.00441 2.76397,-0.2090341 5.49246,-0.4547195 5.10068,-0.45927767 22.81238,-0.56445077 28.17118,-0.167281 1.6565,0.1227815 5.8026,0.5236372 9.2132,0.8907881 3.4106,0.3671511 6.4404,0.6772776 6.7326,0.6891698 1.4179,0.057673 11.2934,2.0574248 12.2253,2.4755749 1.2869,0.5773327 -7.3415,0.3628167 -19.4894,-0.4845373 -9.2417,-0.644636 -39.19835,-0.3152596 -44.11711,0.4850706 -1.65661,0.2695463 -3.96878,0.6062753 -5.13811,0.748287 -5.42819,0.6592148 -26.18597,5.0197703 -27.81679,5.8434283 -0.29235,0.147648 -1.32883,0.344886 -2.3033,0.438307 -1.51451,0.145189 -1.64315,0.09486 -0.88589,-0.346568 z"
     id="path17" /><path
     style="fill:#efa3ef;fill-opacity:1;stroke:none;stroke-width:0.808283"
     d="m 1058.042,99.848138 c -0.6669,-0.14231 -5.0316,-0.856194 -9.6994,-1.586419 -31.7363,-4.964756 -58.33356,-12.700268 -55.03167,-16.005356 2.25943,-2.261628 23.56667,-1.428608 40.48257,1.58269 21.9807,3.912929 48.4969,12.056023 48.4969,14.893346 0,1.121889 -3.8123,1.538431 -13.3366,1.457201 -5.3347,-0.0455 -10.245,-0.199162 -10.9118,-0.341462 z"
     id="path3" /><path
     style="fill:#efa3ef;fill-opacity:1;stroke:none;stroke-width:0.285771"
     d="m 922.04034,45.569702 c -0.47152,-0.120177 -1.69319,-0.370206 -2.71483,-0.55562 -2.29765,-0.416998 -7.43004,-2.013751 -7.43004,-2.311584 0,-0.3879 2.92268,-0.521631 5.71093,-0.26131 2.8679,0.267757 5.50788,1.007343 7.86319,2.202859 1.35424,0.687387 1.39155,0.73606 0.71443,0.931998 -0.93821,0.271492 -3.06636,0.268234 -4.14368,-0.0063 z"
     id="path20" /><path
     style="fill:#efa3ef;fill-opacity:1;stroke:none;stroke-width:0.285771"
     d="m 977.27807,38.410238 c -3.27028,-0.609747 -6.33194,-1.580398 -6.8129,-2.159919 -0.29046,-0.349979 -0.13119,-0.41238 1.05001,-0.411406 2.66016,0.0022 10.78885,1.578723 12.25171,2.376169 0.51215,0.279189 0.45276,0.333472 -0.57154,0.522395 -1.68593,0.310953 -2.83538,0.247386 -5.91728,-0.327239 z"
     id="path21" /><path
     style="fill:#efa3ef;fill-opacity:1;stroke:none;stroke-width:0.285771"
     d="m 1046.6365,46.081797 c -1.904,-0.353901 -5.8242,-1.575799 -6.7156,-2.093252 -0.6997,-0.406169 -0.6872,-0.414918 0.6056,-0.424836 2.3263,-0.01785 10.216,1.553859 12.1112,2.412676 0.7942,0.35986 0.6573,0.387844 -1.8575,0.379737 -1.4932,-0.0048 -3.3578,-0.128259 -4.1437,-0.274325 z"
     id="path22" /></svg>
