<?xml version="1.0" encoding="UTF-8" standalone="no"?>
<svg
   width="1438"
   height="849"
   viewBox="0 0 1438 849"
   fill="none"
   version="1.1"
   id="svg2"
   sodipodi:docname="Shadow.svg"
   xmlns:inkscape="http://www.inkscape.org/namespaces/inkscape"
   xmlns:sodipodi="http://sodipodi.sourceforge.net/DTD/sodipodi-0.dtd"
   xmlns="http://www.w3.org/2000/svg"
   xmlns:svg="http://www.w3.org/2000/svg">
  <defs
     id="defs2" />
  <sodipodi:namedview
     id="namedview2"
     pagecolor="#ffffff"
     bordercolor="#666666"
     borderopacity="1.0"
     inkscape:showpageshadow="2"
     inkscape:pageopacity="0.0"
     inkscape:pagecheckerboard="0"
     inkscape:deskcolor="#d1d1d1"
     showgrid="false"
     inkscape:zoom="1.237191"
     inkscape:cx="1044.7053"
     inkscape:cy="129.72936"
     inkscape:window-width="1600"
     inkscape:window-height="771"
     inkscape:window-x="0"
     inkscape:window-y="34"
     inkscape:window-maximized="1"
     inkscape:current-layer="svg2" />
  <path
     d="m 1015.5661,107.01861 c -15.386,-4.4915 -19.83001,-7.319399 -36.18901,-23.026699 -17.636,-16.933 -17.902,-17.7826 -6.121,-19.4911 39.93001,-5.7905 166.36001,20.393 166.41001,34.4628 0.01,2.916899 -37.13,18.756599 -45.52,19.414599 -14.4,1.128 -56.81,-5.0025 -78.58,-11.3596 z m 60.77,9.7546 c 27.49,1.248 22.54,-5.3518 -10.21,-13.6281 -44.12,-11.144499 -84.32201,-9.587199 -51.4,1.9907 10.9,3.8338 49.24,11.0754 61.61,11.6374 z M 956.45009,82.681411 c -121.515,-37.0788 -54.727,-55.4258 100.22601,-27.5329 157.15,28.2879 213.44,69.549699 82.89,60.754699 -15.2574,-1.02804 -14.9727,-0.78976 -17.2693,-3.38471 -10.8434,-12.25187 -26.84,-7.78492 -22.5743,-9.67377 28,-12.403695 31.5416,-14.939804 -46.1184,-28.949004 -73.82597,-13.3183 -88.37722,-11.507675 -68.72622,7.949825 12.327,12.2062 8.74247,7.800052 3.57947,6.793552 -2.5,-0.4872 -24.65126,-3.712992 -32.00726,-5.957692 z m -17.934,-21.1717 c -0.99772,5.082207 -1.29405,1.835219 -6.89905,2.303019 -1.47,0.1227 -4.27285,-1.220157 -9.53395,-5.273119 0.575,1.4629 16.195,4.286 16.433,2.9701 z m 246.00001,44.398999 c 0.27,-1.4926 2.1474,2.65485 -2.8126,1.75965 -4.95,-0.8952 -12.6986,-0.20663 -13.1274,-4.63805 -0.1,0.5594 3.4,1.6647 7.79,2.4562 4.38,0.7916 8.05,0.9816 8.15,0.4222 z M 994.51909,55.018611 c -3.89251,-5.565657 -6.45123,-12.567444 -6.33823,-13.193844 0.117,-0.6508 4.89923,10.581944 0.34323,9.759544 -4.385,-0.7916 -8.058,-0.9608 -8.164,-0.376 -0.24,1.3301 7.57596,-2.841508 12.01596,-2.638108 1.844,0.0845 2.64448,7.165387 2.14304,6.448408 z m 138.43701,23.816 c -0.3049,4.392815 -9.6192,1.739887 -14.1692,0.917487 -4.56,-0.8224 -1.6508,-4.446687 -1.7708,-3.795887 -0.12,0.6508 3.21,1.7557 7.76,2.5781 4.56,0.8224 8.2258,-0.359883 8.18,0.3003 z m -70.47,-16.25 c 1.54,-0.003 2.85,-0.0153 2.96,-0.6417 0.12,-0.6508 -6.6343,2.682633 -11.1943,1.860233 -4.38,-0.7916 -4.6257,-5.397533 -4.7357,-4.810833 -0.2,1.119 5.92,2.9056 8.63,3.2018 1.06,0.1151 2.93,0.3932 4.34,0.3905 z m -167.36401,-21.2718 c 4.947,-27.40705 241.80401,7.3008 307.59401,45.0731 8.46,4.858 11.97,8.7412 11.3,12.4954 l -1.9445,9.843889 -6.5963,-6.83253 C 1166.5953,69.915175 956.82898,44.71517 906.70717,49.424943 l -13.01143,1.222639 z m 64.451,-15.0172 c 54.41301,-24.3021001 158.84301,-5.39375 199.28301,36.0845 l 2.1252,8.724105 -9.8608,-1.359703 c -22.5894,-6.431617 -54.2148,-6.970373 -76.8457,-16.144427 -38.3608,-15.550577 -66.8828,-37.761299 -98.06171,-23.625675 -30.61212,13.878677 -21.238,-1.6253 -16.64,-3.6788 z m 37.035,-5.14622 c 13.85501,-1.9204 37.28801,-2.35544 50.41801,-0.9359 5.8,0.62742 10.93,0.71085 11.4,0.1854 0.91,-1.01152 14.1516,27.35112 -4.3184,26.24025 -9.2622,-0.557274 -47.7357,-11.989733 -58.87156,-10.477443 -5.78034,0.784989 -18.32732,-0.973765 -21.61412,-0.195135 -10.50058,2.487542 -2.98793,-10.137052 6.07407,-12.025542 3.529,-0.73529 11.139,-1.99153 16.912,-2.79163 z"
     fill="black"
     id="path1"
     style="fill:#ffb4ff;fill-opacity:1"
     sodipodi:nodetypes="cccccccccccccscccsccscccccccscscssscscssccccscccccsccccccsscscccssss" />
  <path
     d="M 0,651.5 1012.6475,105.56805 c 21.51,4.335 49.1721,8.65738 67.7721,10.45738 L 1438,443 V 834.5 C 876.478,784.832 561.636,776.894 0,849 Z"
     fill="#52575D"
     id="path2"
     style="fill:#e400e4;fill-opacity:0.238927"
     sodipodi:nodetypes="ccccccc" />
  <path
     style="opacity:0;fill:#e400e4;fill-opacity:0.238927;stroke-width:0.0484824"
     d="m 925.04407,46.996581 c -0.0933,-0.0087 -0.4424,-0.03985 -0.77572,-0.06922 -2.2455,-0.197847 -5.94239,-0.834788 -8.58074,-1.478384 -2.38349,-0.581427 -3.84591,-1.096774 -4.33772,-1.528589 -0.14741,-0.129433 -0.17179,-0.180831 -0.17179,-0.362293 0,-0.293725 0.19446,-0.502509 0.69612,-0.747419 0.692,-0.33783 1.16216,-0.405546 2.8431,-0.409477 2.23089,-0.0052 4.28058,0.2626 6.71481,0.877376 2.7363,0.691064 4.99558,1.689021 5.77212,2.549633 0.26846,0.297523 0.3609,0.492371 0.3609,0.760697 0,0.238631 -0.0967,0.312572 -0.50585,0.386816 -0.25887,0.04697 -1.58767,0.06073 -2.01523,0.02086 z"
     id="path3" />
  <path
     style="opacity:0;fill:#e400e4;fill-opacity:0.238927;stroke-width:0.0484824"
     d="m 925.04407,46.996581 c -0.0933,-0.0087 -0.4424,-0.03985 -0.77572,-0.06922 -2.2455,-0.197847 -5.94239,-0.834788 -8.58074,-1.478384 -2.38349,-0.581427 -3.84591,-1.096774 -4.33772,-1.528589 -0.14741,-0.129433 -0.17179,-0.180831 -0.17179,-0.362293 0,-0.293725 0.19446,-0.502509 0.69612,-0.747419 0.692,-0.33783 1.16216,-0.405546 2.8431,-0.409477 2.23089,-0.0052 4.28058,0.2626 6.71481,0.877376 2.7363,0.691064 4.99558,1.689021 5.77212,2.549633 0.26846,0.297523 0.3609,0.492371 0.3609,0.760697 0,0.238631 -0.0967,0.312572 -0.50585,0.386816 -0.25887,0.04697 -1.58767,0.06073 -2.01523,0.02086 z"
     id="path4" />
  <path
     style="opacity:0;fill:#e400e4;fill-opacity:0.238927;stroke-width:0.0484824"
     d="m 925.04407,46.996581 c -0.0933,-0.0087 -0.4424,-0.03985 -0.77572,-0.06922 -2.2455,-0.197847 -5.94239,-0.834788 -8.58074,-1.478384 -2.38349,-0.581427 -3.84591,-1.096774 -4.33772,-1.528589 -0.14741,-0.129433 -0.17179,-0.180831 -0.17179,-0.362293 0,-0.293725 0.19446,-0.502509 0.69612,-0.747419 0.692,-0.33783 1.16216,-0.405546 2.8431,-0.409477 2.23089,-0.0052 4.28058,0.2626 6.71481,0.877376 2.7363,0.691064 4.99558,1.689021 5.77212,2.549633 0.26846,0.297523 0.3609,0.492371 0.3609,0.760697 0,0.238631 -0.0967,0.312572 -0.50585,0.386816 -0.25887,0.04697 -1.58767,0.06073 -2.01523,0.02086 z"
     id="path5" />
  <path
     style="opacity:0;fill:#e400e4;fill-opacity:0.238927;stroke-width:0.0484824"
     d="m 925.04407,46.996581 c -0.0933,-0.0087 -0.4424,-0.03985 -0.77572,-0.06922 -2.2455,-0.197847 -5.94239,-0.834788 -8.58074,-1.478384 -2.38349,-0.581427 -3.84591,-1.096774 -4.33772,-1.528589 -0.14741,-0.129433 -0.17179,-0.180831 -0.17179,-0.362293 0,-0.293725 0.19446,-0.502509 0.69612,-0.747419 0.692,-0.33783 1.16216,-0.405546 2.8431,-0.409477 2.23089,-0.0052 4.28058,0.2626 6.71481,0.877376 2.7363,0.691064 4.99558,1.689021 5.77212,2.549633 0.26846,0.297523 0.3609,0.492371 0.3609,0.760697 0,0.238631 -0.0967,0.312572 -0.50585,0.386816 -0.25887,0.04697 -1.58767,0.06073 -2.01523,0.02086 z"
     id="path6" />
  <path
     style="opacity:0;fill:#e400e4;fill-opacity:0.238927;stroke-width:0.0484824"
     d="M 932.38915,63.685398 C 917.99828,58.890041 907.30816,54.667227 898.89994,50.456486 L 896.8758,49.44282 V 39.073122 28.703424 l 0.10908,-0.02567 c 0.2447,-0.05758 1.93034,-0.321647 3.06652,-0.480382 7.01321,-0.979817 16.5725,-1.434734 27.15014,-1.292047 2.02656,0.02734 4.01191,0.06134 4.41189,0.07556 0.39998,0.01422 1.46902,0.04783 2.37564,0.07468 2.9502,0.08737 6.33285,0.233503 10.0601,0.434591 2.68497,0.144857 2.72457,0.147198 2.94518,0.174092 l 0.20592,0.0251 0.0122,18.541563 0.0122,18.541564 -5.79364,-0.0023 -5.79365,-0.0023 z m -5.11489,-16.707521 c 0.26176,-0.09356 0.33938,-0.183979 0.33938,-0.395368 0,-0.272222 -0.10766,-0.490082 -0.38938,-0.787954 -1.46104,-1.544835 -6.56847,-3.112438 -11.14117,-3.419515 -2.4895,-0.167182 -4.15249,0.0971 -4.76031,0.756497 -0.16483,0.178823 -0.19316,0.241165 -0.19316,0.425081 0,0.293822 0.17001,0.455199 0.79419,0.753857 1.97475,0.944889 8.39685,2.321556 12.44151,2.667016 0.33331,0.02847 0.69329,0.06009 0.79995,0.07026 0.41894,0.03996 1.94297,-0.01053 2.10899,-0.06987 z"
     id="path7" />
  <path
     style="opacity:0;fill:#e400e4;fill-opacity:0.238927;stroke-width:0.0484824"
     d="m 925.04407,46.996581 c -0.0933,-0.0087 -0.4424,-0.03985 -0.77572,-0.06922 -2.2455,-0.197847 -5.94239,-0.834788 -8.58074,-1.478384 -2.38349,-0.581427 -3.84591,-1.096774 -4.33772,-1.528589 -0.14741,-0.129433 -0.17179,-0.180831 -0.17179,-0.362293 0,-0.293725 0.19446,-0.502509 0.69612,-0.747419 0.692,-0.33783 1.16216,-0.405546 2.8431,-0.409477 2.23089,-0.0052 4.28058,0.2626 6.71481,0.877376 2.7363,0.691064 4.99558,1.689021 5.77212,2.549633 0.26846,0.297523 0.3609,0.492371 0.3609,0.760697 0,0.238631 -0.0967,0.312572 -0.50585,0.386816 -0.25887,0.04697 -1.58767,0.06073 -2.01523,0.02086 z"
     id="path8" />
  <path
     style="opacity:0;fill:#e400e4;fill-opacity:0.238927;stroke-width:0.380179"
     d="m 1062.7904,101.64109 c -0.6273,-0.0731 -2.7658,-0.31741 -4.7522,-0.54284 -10.3865,-1.178712 -35.3038,-5.900137 -47.0502,-8.915242 -6.0945,-1.564349 -13.53243,-4.245375 -15.97019,-5.756494 -1.5691,-0.972648 -3.13079,-2.488351 -3.13079,-3.038588 0,-2.496678 13.16738,-3.097313 28.45648,-1.298056 11.6096,1.366234 22.5002,3.379523 34.4631,6.370968 15.8929,3.974163 27.1953,8.268628 28.1228,10.685459 0.3789,0.987603 -0.9987,1.847293 -3.7197,2.321123 -2.1833,0.3802 -13.6108,0.50107 -16.4193,0.17367 z"
     id="path9" />
  <path
     style="opacity:0;fill:#e400e4;fill-opacity:0.238927;stroke-width:0.380179"
     d="M 758.07693,43.910675 V -118.99603 h 197.3129 197.31287 v 87.044129 87.044127 l -1.5397,-0.543257 c -0.8469,-0.29879 -5.5088,-1.739152 -10.3599,-3.200799 -55.5485,-16.73702 -136.6794,-30.953642 -195.35953,-34.232964 -9.19372,-0.513785 -30.39983,-0.513314 -36.45862,8.18e-4 -12.45032,1.056494 -20.60951,3.356429 -23.47168,6.616266 -0.98514,1.122007 -2.30704,4.958264 -1.86192,5.403393 0.0721,0.07212 2.1714,-0.556152 4.66508,-1.396154 8.17715,-2.754496 15.59206,-3.717824 31.14649,-4.046477 53.98626,-1.140682 158.77268,15.821544 226.30158,36.632418 l 6.9382,2.138214 v 1.694317 c 0,1.255313 -0.1312,1.643939 -0.5066,1.499897 -4.2082,-1.614821 -25.0617,-7.572614 -37.3314,-10.665439 -71.1082,-17.924371 -158.67432,-30.136466 -201.18799,-28.057963 -23.47662,1.14778 -33.28701,5.017287 -30.37711,11.981642 2.82053,6.750488 22.80429,16.545934 54.32396,26.627992 17.0562,5.45569 28.89462,8.586213 29.39683,7.773619 0.11607,-0.187801 -2.75271,-3.37407 -6.37507,-7.080595 -7.05719,-7.221165 -9.05728,-10.054442 -9.05728,-12.830345 0,-4.185961 4.97233,-6.734552 15.1524,-7.76643 13.80105,-1.398914 40.10736,1.071428 72.73346,6.830163 50.2987,8.878054 80.4059,17.875602 88.5188,26.453881 2.3465,2.481003 2.9389,4.381932 2.0544,6.592304 -1.0834,2.707707 -3.8263,4.710787 -11.9333,8.71452 -7.8077,3.855909 -8.6919,4.591715 -6.3962,5.322936 2.4615,0.784047 19.4942,2.084777 33.8568,2.585547 l 7.1283,0.24853 v 42.02889 42.02888 l -1.6157,-1.54008 c -0.8887,-0.84703 -10.0843,-9.14375 -20.4346,-18.43713 -16.9638,-15.23137 -39.7824,-35.72612 -60.6386,-54.46301 -4.182,-3.75702 -7.9457,-7.13024 -8.3639,-7.49604 -0.5659,-0.49497 -2.2191,-0.82113 -6.4631,-1.27507 -12.2375,-1.30895 -24.3314,-3.18625 -39.108,-6.07063 l -6.7928,-1.325954 -15.63776,8.613304 c -8.60077,4.73732 -53.9598,29.70604 -100.79785,55.48603 l -85.1601,46.87273 -24.80668,0.004 -24.80668,0.004 z m 329.38717,58.928015 c 9.9332,-2.58084 34.1697,-12.907552 39.7056,-16.91776 2.2089,-1.600064 2.1426,-2.641134 -0.3193,-5.014029 -2.2102,-2.130379 -9.3641,-5.755131 -16.3289,-8.273585 -18.3801,-6.646179 -52.2676,-14.533475 -81.567,-18.984668 -31.82228,-4.834463 -56.36408,-6.122524 -69.36221,-3.640431 -4.38991,0.838288 -5.343,1.372481 -5.343,2.994693 0,1.994358 2.40347,4.869116 11.43514,13.677419 16.99862,16.578226 22.3616,20.350997 34.56657,24.316998 16.3611,5.316579 45.5772,10.539713 70.143,12.539903 0.8364,0.0681 4.1965,0.15258 7.4669,0.18773 5.2414,0.0563 6.3797,-0.0487 9.6032,-0.88627 z m 58.7756,-56.955761 c -24.324,-23.843112 -72.0044,-41.3160021 -122.1769,-44.7727417 -8.6651,-0.59700267 -30.26502,-0.260856 -37.11811,0.5776402 -15.80876,1.9342557 -28.24715,5.0992193 -38.49313,9.7946315 -1.41141,0.646806 -2.5662,1.310237 -2.5662,1.474288 0,0.697724 1.97172,0.962116 15.39725,2.064654 31.24583,2.565976 54.88149,5.668682 85.54029,11.229062 31.5814,5.727712 67.5915,14.086483 95.615,22.194447 3.8683,1.119213 7.3755,2.048739 7.7937,2.065615 0.5247,0.02118 -0.7126,-1.413083 -3.9919,-4.627596 z"
     id="path10" />
</svg>
