<?xml version="1.0" encoding="UTF-8" standalone="no"?>
<svg
   width="1034.7433"
   height="551.03516"
   viewBox="0 0 1034.7432 551.03516"
   fill="none"
   version="1.1"
   id="svg2"
   preserveAspectRatio="none"
   xmlns="http://www.w3.org/2000/svg"
   xmlns:svg="http://www.w3.org/2000/svg">
  <defs
     id="defs2" />
  <path
     style="fill:#83ff83;fill-opacity:0;stroke:none;stroke-width:0.595812px;stroke-linecap:butt;stroke-linejoin:miter;stroke-opacity:1"
     d="m 623.76342,18.191865 -5.95973,3.400705 31.74652,3.281521 36.69922,6.124574 42.12099,8.826711 18.21539,5.856798 0.78456,-1.144912 -1.84362,-3.653195 -5.39316,-2.769558 -43.85461,-12.992685 -43.75959,-6.07577 -19.525,-0.93803 z"
     id="path18" />
  <path
     style="fill:#83ff83;fill-opacity:0;stroke:none;stroke-width:0.595812px;stroke-linecap:butt;stroke-linejoin:miter;stroke-opacity:1"
     d="m 635.45757,54.45034 5.62398,0.611005 -11.29412,-12.86172 28.18955,0.249848 38.56255,6.258989 25.59763,7.386824 7.12865,4.124929 -14.31777,7.772672 7.09379,1.904415 13.48018,-4.825691 1.11798,-11.141903 -27.41222,-7.459216 -28.01748,-6.382959 -29.97006,-4.548998 -23.84201,0.651049 -5.70246,6.327716 4.57379,7.216345 z"
     id="path19" />
  <path
     style="fill:#83ff83;fill-opacity:0;stroke:none;stroke-width:0.595812px;stroke-linecap:butt;stroke-linejoin:miter;stroke-opacity:1"
     d="m 586.39821,27.91879 -0.57571,4.427851 15.45945,-3.085714 19.65515,0.357225 29.03066,1.32297 14.24451,2.448964 35.26509,5.467924 11.66052,2.507348 17.34032,4.759027 18.68263,5.955078 13.10928,4.647199 9.95196,4.89753 5.22694,4.941524 0.89777,-4.22776 -6.44859,-7.307999 -19.92662,-7.642695 -41.01001,-10.971073 -48.11545,-8.860868 -29.53079,-3.64928 -34.64267,-0.244241 z"
     id="path3" />
  <path
     d="M 658.38833,65.672672 C 649.22117,62.996584 646.57338,61.311688 636.8265,51.953097 626.31877,41.864219 626.16028,41.358018 633.17954,40.340074 c 23.79075,-3.450047 99.11924,12.150385 99.14903,20.533335 0.006,1.737923 -22.12248,11.175403 -27.12134,11.567443 -8.5797,0.67208 -33.84809,-2.980546 -46.8189,-6.76818 z m 36.20748,5.81191 c 16.37888,0.74357 13.42961,-3.188671 -6.08325,-8.119786 -26.28721,-6.640023 -50.24003,-5.712165 -30.62472,1.186082 6.49435,2.284222 29.33777,6.598854 36.70797,6.933704 z M 623.16633,51.172286 c -72.40005,-22.091979 -32.60698,-33.023333 59.71581,-16.404421 93.63182,16.854259 127.17006,41.438517 49.38685,36.198357 -13.28064,-0.89485 -13.29255,-0.90266 -5.23718,-4.469602 16.68272,-7.390269 0.76264,-15.856871 -45.50812,-24.203714 -43.98639,-7.935198 -63.22753,-5.754766 -51.51923,5.838238 7.34457,7.272596 6.91499,6.600282 3.83881,6.000598 -1.48953,-0.29028 -6.29415,-1.622038 -10.67694,-2.959456 z M 612.48104,38.557942 c 0.22105,-1.226181 -5.12219,-2.849767 -8.46171,-2.571047 -0.87585,0.07311 -1.47404,0.433751 -1.32926,0.801426 0.34259,0.871613 9.64917,2.553649 9.79097,1.769621 z m 146.56968,26.453439 c 0.16087,-0.889309 -1.53719,-1.753831 -4.49241,-2.287202 -2.94927,-0.533371 -4.84395,-0.317091 -5.00482,0.572217 -0.0596,0.333297 2.02576,0.991848 4.64137,1.463433 2.60966,0.471644 4.79628,0.584849 4.85586,0.251552 z M 645.84828,34.690469 c 0.51359,0.09265 0.98845,-0.136918 1.05578,-0.510134 0.0697,-0.387754 -1.91315,-1.046066 -4.62767,-1.536062 -2.61264,-0.471644 -4.80105,-0.572456 -4.86421,-0.224025 -0.14299,0.792489 2.8599,1.88908 5.5053,2.010268 1.09868,0.05035 2.41781,0.167304 2.9308,0.259953 z m 82.4824,14.189849 c 0.0715,-0.387754 -1.91256,-1.046067 -4.6235,-1.536062 -2.7169,-0.489996 -4.80224,-0.566676 -4.87374,-0.178922 -0.0715,0.387754 1.91256,1.046066 4.6235,1.536062 2.7169,0.489995 4.80224,0.566676 4.87374,0.178922 z m -41.98687,-9.681939 c 0.91755,-0.0018 1.69806,-0.0091 1.7636,-0.382332 0.0715,-0.387754 -1.91256,-1.046066 -4.62946,-1.536062 -2.60965,-0.471644 -4.79628,-0.571502 -4.86182,-0.22194 -0.11916,0.666714 3.5272,1.731191 5.14185,1.90767 0.63156,0.06858 1.74573,0.234273 2.58583,0.232664 z M 586.62639,26.524394 c 2.94748,-16.329435 144.06966,4.349902 183.26811,26.855076 5.04056,2.894453 7.13186,5.208108 6.73267,7.444904 l -0.28003,1.530402 -2.71095,-2.230421 C 750.47104,41.07179 618.03639,17.163898 589.6704,26.9134 l -3.32046,1.141336 z m 38.40066,-8.94742 C 657.44694,3.0975005 719.66758,14.363316 743.7622,39.076536 l 1.77552,1.819072 -3.9979,-1.138536 C 705.26681,29.429512 667.27188,22.304678 634.94135,19.768846 c -12.82306,-1.00579 -12.65384,-0.968373 -9.9143,-2.191872 z m 22.06588,-3.066176 c 8.25497,-1.144197 22.21662,-1.403399 30.03963,-0.55762 3.45571,0.373824 6.51222,0.423532 6.79225,0.110463 0.54219,-0.602675 -5.55892,-1.340415 -16.56356,-2.002284 -8.38307,-0.504379 -22.40311,0.818234 -28.8212,2.718849 -6.16486,1.82571 -6.92273,2.51906 -1.52349,1.393877 2.10262,-0.438094 6.63675,-1.186576 10.07637,-1.663285 z"
     fill="#000000"
     id="path1"
     style="fill:#83ff83;fill-opacity:0;stroke-width:0.575883;stroke-dasharray:none" />
  <path
     style="fill:#83ff83;fill-opacity:0;stroke:none;stroke-width:0.164571;stroke-dasharray:none"
     d="m 634.19759,16.348581 c 1.15364,-0.543394 5.50614,-1.825872 7.74709,-2.282707 5.91544,-1.205902 14.117,-1.974275 21.11296,-1.977999 6.50859,-0.0035 18.82538,1.050624 20.38504,1.744576 0.79994,0.355953 -2.65077,0.360521 -6.33812,0.0084 -4.0405,-0.385854 -18.86757,-0.44349 -23.41154,-0.091 -4.85728,0.376791 -11.08218,1.244443 -16.68604,2.325764 -1.17058,0.225875 -2.4348,0.451879 -2.80939,0.502232 l -0.68106,0.09155 z"
     id="path4" />
  <path
     style="fill:#83ff83;fill-opacity:0;stroke:none;stroke-width:0.164571;stroke-dasharray:none"
     d="m 608.65774,38.37147 c -2.92646,-0.45057 -5.67934,-1.252622 -5.82344,-1.696657 -0.18849,-0.580821 2.49101,-0.774853 4.7443,-0.343556 2.4715,0.473068 4.73985,1.459809 4.73985,2.061859 0,0.323294 -1.47704,0.314565 -3.66071,-0.02163 z"
     id="path5" />
  <path
     style="fill:#83ff83;fill-opacity:0;stroke:none;stroke-width:0.164571;stroke-dasharray:none"
     d="m 643.98788,34.44907 c -1.68002,-0.127963 -3.542,-0.445631 -4.5052,-0.768621 -1.05072,-0.352333 -1.9649,-0.899252 -1.9649,-1.175512 0,-0.431165 4.04388,-0.01317 6.88374,0.711506 3.19028,0.814117 2.96351,1.489863 -0.41364,1.232627 z"
     id="path6" />
  <path
     style="fill:#83ff83;fill-opacity:0;stroke:none;stroke-width:0.164571;stroke-dasharray:none"
     d="m 684.42601,38.963749 c -2.47006,-0.311002 -5.70395,-1.36914 -5.70395,-1.866344 0,-0.508645 5.45269,0.236251 7.98364,1.090651 2.28577,0.771635 1.04392,1.194179 -2.27969,0.775693 z"
     id="path7" />
  <path
     style="fill:#83ff83;fill-opacity:0;stroke:none;stroke-width:0.164571;stroke-dasharray:none"
     d="m 693.36491,71.322612 c -6.73059,-0.54968 -24.57741,-3.826292 -32.27166,-5.924961 -5.57584,-1.520874 -10.29475,-3.793401 -10.29475,-4.957772 0,-1.938407 10.22182,-1.973668 22.43143,-0.07739 15.32642,2.380345 31.88334,7.405527 31.88334,9.676883 0,0.38132 -0.70735,0.79571 -1.83689,1.0761 -1.22516,0.30413 -7.19598,0.42891 -9.91147,0.20714 z"
     id="path8" />
  <path
     style="fill:#83ff83;fill-opacity:0;stroke:none;stroke-width:0.164571;stroke-dasharray:none"
     d="m 723.92763,48.675573 c -2.1252,-0.37358 -3.87355,-0.838003 -4.60783,-1.224005 l -0.50012,-0.262896 0.5031,-0.126986 c 1.40344,-0.354251 8.52285,1.077996 8.73752,1.757788 0.10075,0.318896 -1.89528,0.2494 -4.13267,-0.143901 z"
     id="path9" />
  <path
     style="fill:#83ff83;fill-opacity:0;stroke:none;stroke-width:0.164571;stroke-dasharray:none"
     d="m 755.68218,64.921574 c -3.206,-0.522217 -5.95924,-1.298393 -5.95924,-1.679974 0,-0.471436 0.73255,-0.670574 2.38372,-0.647981 3.07367,0.04206 6.8106,1.249518 6.8106,2.200624 0,0.192775 -0.29051,0.238241 -1.40468,0.219848 -0.77259,-0.01275 -1.59624,-0.0544 -1.8304,-0.09252 z"
     id="path10" />
  <path
     style="fill:#83ff83;fill-opacity:0;stroke:none;stroke-width:0.164571;stroke-dasharray:none"
     d="m 723.92763,48.590342 c -1.48303,-0.262556 -4.22281,-1.002882 -4.66276,-1.259939 -0.45169,-0.263968 1.92429,-0.201855 3.64118,0.09518 1.97893,0.342365 4.12183,0.886395 4.67349,1.186476 0.40027,0.217721 0.32716,0.235679 -0.92762,0.22788 -0.74917,-0.0048 -1.97512,-0.116976 -2.72429,-0.249598 z"
     id="path11" />
  <path
     style="fill:#83ff83;fill-opacity:0;stroke:none;stroke-width:0.164571;stroke-dasharray:none"
     d="m 723.92763,48.590342 c -1.55352,-0.275026 -4.25326,-1.013273 -4.66276,-1.275031 -0.19489,-0.124608 0.24535,-0.153207 1.51288,-0.09829 1.90988,0.08276 5.39883,0.777564 6.55524,1.305424 l 0.68101,0.310894 -1.36208,-0.0012 c -0.74917,-5.12e-4 -1.97512,-0.109444 -2.72429,-0.242072 z"
     id="path12" />
  <path
     style="fill:#83ff83;fill-opacity:0;stroke:none;stroke-width:0.164571;stroke-dasharray:none"
     d="m 683.56607,38.737823 c -2.34642,-0.42625 -4.85682,-1.338866 -4.54384,-1.651852 0.49185,-0.491854 8.72394,1.162804 8.72394,1.753521 0,0.217668 -2.79668,0.149644 -4.1801,-0.101669 z"
     id="path13" />
  <path
     style="fill:#83ff83;fill-opacity:0;stroke:none;stroke-width:0.164571;stroke-dasharray:none"
     d="m 691.64826,71.070762 c -6.52807,-0.75139 -20.35912,-3.281678 -27.80987,-5.087613 -6.95699,-1.686272 -12.86962,-4.231394 -12.86962,-5.539832 0,-0.438672 0.31597,-0.638728 1.54476,-0.978025 0.91837,-0.253583 1.80624,-0.302178 5.52124,-0.302178 4.60229,0 6.87191,0.162264 12.16302,0.869575 1.72642,0.230788 3.23966,0.380962 3.36276,0.333726 0.12309,-0.04725 0.22385,-0.02151 0.22385,0.05708 0,0.07864 0.40223,0.194896 0.89389,0.258338 1.80656,0.233135 10.1882,1.979465 13.54751,2.822652 9.68916,2.431983 16.71725,5.159895 16.71725,6.488717 0,0.50271 -1.26485,0.99612 -3.02964,1.18183 -2.11205,0.22227 -7.94268,0.16302 -10.26515,-0.1043 z"
     id="path14" />
  <path
     style="fill:#83ff83;fill-opacity:0;stroke:none;stroke-width:0.164571;stroke-dasharray:none"
     d="m 643.43159,34.367843 c -0.2091,-0.05869 -0.99313,-0.199972 -1.7423,-0.313927 -1.47582,-0.22449 -2.94148,-0.680578 -3.62387,-1.127699 -0.36945,-0.242078 -0.39169,-0.303006 -0.15832,-0.433608 0.79347,-0.444046 8.44379,1.028711 8.52661,1.641443 0.0269,0.199001 -2.44141,0.391222 -3.00212,0.233791 z"
     id="path15" />
  <path
     style="fill:#83ff83;fill-opacity:0;stroke:none;stroke-width:0.164571;stroke-dasharray:none"
     d="m 609.42353,38.433262 c 2.2e-4,-0.07023 -0.20108,-0.127694 -0.44733,-0.127694 -1.30271,0 -6.02236,-1.33522 -6.02236,-1.703771 0,-0.463911 3.45239,-0.459139 5.42742,0.0075 1.51176,0.357189 3.62543,1.287179 3.72833,1.64043 0.0402,0.13777 -0.36676,0.216846 -1.31416,0.255395 -0.75477,0.03068 -1.37212,-0.0018 -1.3719,-0.07186 z"
     id="path16" />
  <path
     d="M 0.70400935,550.79369 C -2.3512657,414.14226 433.52672,216.55383 658.95085,63.039206 c 10.0389,-0.80978 18.50467,1.107381 20.16263,1.306816 2.73337,0.328794 16.9743,4.452205 18.47028,5.452125 61.10909,68.331883 336.37044,373.275133 336.51114,481.228153"
     fill="#52575D"
     id="path2"
     style="fill:#949aa1;fill-opacity:1;stroke:#2f2f2f;stroke-width:3;stroke-dasharray:none;stroke-opacity:1" />
  <path
     style="fill:#83ff83;fill-opacity:0;stroke:none;stroke-width:0.164571;stroke-dasharray:none"
     d="m 634.96379,16.149501 c 0.63922,-0.274612 4.76124,-1.51087 5.03765,-1.51087 0.13232,0 0.24059,-0.08114 0.24059,-0.180314 0,-0.09917 0.0671,-0.138813 0.14922,-0.08809 0.0821,0.05072 0.82911,-0.05605 1.66009,-0.237263 1.41822,-0.309282 7.16611,-1.221738 7.72557,-1.226405 0.14046,-0.0012 0.90666,-0.07745 1.70265,-0.169506 0.796,-0.09206 1.56219,-0.168654 1.70266,-0.170215 0.14047,-0.0015 1.32808,-0.07402 2.63911,-0.161018 2.45087,-0.162633 10.96133,-0.199875 13.53613,-0.05924 0.796,0.04348 2.7881,0.185422 4.42694,0.315432 1.63878,0.13001 3.09458,0.239828 3.23501,0.244038 0.68126,0.02042 5.42636,0.728544 5.87417,0.876614 0.61833,0.204436 -3.52762,0.128475 -9.36461,-0.171577 -4.44058,-0.22827 -18.83462,-0.111636 -21.19808,0.171766 -0.79599,0.09545 -1.90697,0.214684 -2.46885,0.264971 -2.60822,0.233431 -12.58225,1.777525 -13.36586,2.069186 -0.14047,0.05228 -0.63849,0.122126 -1.10672,0.155207 -0.72772,0.05141 -0.78953,0.03359 -0.42567,-0.12272 z"
     id="path17" />
</svg>
