<svg width="1440" height="850" viewBox="0 0 1440 850" fill="none" xmlns="http://www.w3.org/2000/svg">
<path d="M1005.65 92.2274C990.264 87.7359 985.82 84.908 969.461 69.2007C951.825 52.2677 951.559 51.4181 963.34 49.7096C1003.27 43.9191 1129.7 70.1026 1129.75 84.1724C1129.76 87.0893 1092.62 102.929 1084.23 103.587C1069.83 104.715 1027.42 98.5845 1005.65 92.2274ZM1066.42 101.982C1093.91 103.23 1088.96 96.6302 1056.21 88.3539C1012.09 77.2094 971.888 78.7667 1004.81 90.3446C1015.71 94.1784 1054.05 101.42 1066.42 101.982ZM946.534 67.8902C825.019 30.8114 891.807 12.4644 1046.76 40.3573C1203.91 68.6452 1260.2 109.907 1129.65 101.112C1107.36 99.6101 1107.34 99.597 1120.86 93.6103C1148.86 81.2066 1122.14 66.9964 1044.48 52.9872C970.654 39.6689 938.36 43.3285 958.011 62.786C970.338 74.9922 969.617 73.8638 964.454 72.8573C961.954 72.3701 953.89 70.1349 946.534 67.8902ZM928.6 46.7185C928.971 44.6605 920.003 41.9355 914.398 42.4033C912.928 42.526 911.924 43.1313 912.167 43.7484C912.742 45.2113 928.362 48.0344 928.6 46.7185ZM1174.6 91.1175C1174.87 89.6249 1172.02 88.1739 1167.06 87.2787C1162.11 86.3835 1158.93 86.7465 1158.66 88.2391C1158.56 88.7985 1162.06 89.9038 1166.45 90.6953C1170.83 91.4869 1174.5 91.6769 1174.6 91.1175ZM984.603 40.2274C985.465 40.3829 986.262 39.9976 986.375 39.3712C986.492 38.7204 983.164 37.6155 978.608 36.7931C974.223 36.0015 970.55 35.8323 970.444 36.4171C970.204 37.7472 975.244 39.5877 979.684 39.7911C981.528 39.8756 983.742 40.0719 984.603 40.2274ZM1123.04 64.0434C1123.16 63.3926 1119.83 62.2877 1115.28 61.4653C1110.72 60.6429 1107.22 60.5142 1107.1 61.165C1106.98 61.8158 1110.31 62.9207 1114.86 63.7431C1119.42 64.5655 1122.92 64.6942 1123.04 64.0434ZM1052.57 47.7934C1054.11 47.7904 1055.42 47.7781 1055.53 47.1517C1055.65 46.5009 1052.32 45.396 1047.76 44.5736C1043.38 43.782 1039.71 43.6144 1039.6 44.2011C1039.4 45.3201 1045.52 47.1067 1048.23 47.4029C1049.29 47.518 1051.16 47.7961 1052.57 47.7934ZM885.206 26.5216C890.153 -0.88545 1127.01 33.8224 1192.8 71.5947C1201.26 76.4527 1204.77 80.3359 1204.1 84.0901L1203.63 86.6587L1199.08 82.9152C1160.2 50.9377 937.924 10.8111 890.315 27.1745L884.742 29.0901L885.206 26.5216ZM949.657 11.5044C1004.07 -12.7977 1108.5 6.11065 1148.94 47.5889L1151.92 50.642L1145.21 48.7311C1084.33 31.3975 1020.56 19.4393 966.297 15.1832C944.775 13.4951 945.059 13.5579 949.657 11.5044ZM986.692 6.35818C1000.55 4.43778 1023.98 4.00274 1037.11 5.42228C1042.91 6.0497 1048.04 6.13313 1048.51 5.60768C1049.42 4.59616 1039.18 3.35795 1020.71 2.24708C1006.64 1.40054 983.109 3.62039 972.337 6.81035C961.99 9.87459 960.718 11.0383 969.78 9.14981C973.309 8.41452 980.919 7.15828 986.692 6.35818Z" fill="black"/>
<path d="M1 651.5L1010.35 96C1031.86 100.335 1043.27 102.2 1061.87 104L1439 443V834.5C877.478 784.832 562.636 776.894 1 849V651.5Z" fill="#52575D"/>
<path d="M1005.65 92.2274C990.264 87.7359 985.82 84.908 969.461 69.2007C951.825 52.2677 951.559 51.4181 963.34 49.7096C1003.27 43.9191 1129.7 70.1026 1129.75 84.1724C1129.76 87.0893 1092.62 102.929 1084.23 103.587C1069.83 104.715 1027.42 98.5845 1005.65 92.2274ZM1066.42 101.982C1093.91 103.23 1088.96 96.6302 1056.21 88.3539C1012.09 77.2094 971.888 78.7667 1004.81 90.3446C1015.71 94.1784 1054.05 101.42 1066.42 101.982ZM946.534 67.8902C825.019 30.8114 891.807 12.4644 1046.76 40.3573C1203.91 68.6452 1260.2 109.907 1129.65 101.112C1107.36 99.6101 1107.34 99.597 1120.86 93.6103C1148.86 81.2066 1122.14 66.9964 1044.48 52.9872C970.654 39.6689 938.36 43.3285 958.011 62.786C970.338 74.9922 969.617 73.8638 964.454 72.8573C961.954 72.3701 953.89 70.1349 946.534 67.8902ZM928.6 46.7185C928.971 44.6605 920.003 41.9355 914.398 42.4033C912.928 42.526 911.924 43.1313 912.167 43.7484C912.742 45.2113 928.362 48.0344 928.6 46.7185ZM1174.6 91.1175C1174.87 89.6249 1172.02 88.1739 1167.06 87.2787C1162.11 86.3835 1158.93 86.7465 1158.66 88.2391C1158.56 88.7985 1162.06 89.9038 1166.45 90.6953C1170.83 91.4869 1174.5 91.6769 1174.6 91.1175ZM984.603 40.2274C985.465 40.3829 986.262 39.9976 986.375 39.3712C986.492 38.7204 983.164 37.6155 978.608 36.7931C974.223 36.0015 970.55 35.8323 970.444 36.4171C970.204 37.7472 975.244 39.5877 979.684 39.7911C981.528 39.8756 983.742 40.0719 984.603 40.2274ZM1123.04 64.0434C1123.16 63.3926 1119.83 62.2877 1115.28 61.4653C1110.72 60.6429 1107.22 60.5142 1107.1 61.165C1106.98 61.8158 1110.31 62.9207 1114.86 63.7431C1119.42 64.5655 1122.92 64.6942 1123.04 64.0434ZM1052.57 47.7934C1054.11 47.7904 1055.42 47.7781 1055.53 47.1517C1055.65 46.5009 1052.32 45.396 1047.76 44.5736C1043.38 43.782 1039.71 43.6144 1039.6 44.2011C1039.4 45.3201 1045.52 47.1067 1048.23 47.4029C1049.29 47.518 1051.16 47.7961 1052.57 47.7934ZM885.206 26.5216C890.153 -0.88545 1127.01 33.8224 1192.8 71.5947C1201.26 76.4527 1204.77 80.3359 1204.1 84.0901L1203.63 86.6587L1199.08 82.9152C1160.2 50.9377 937.924 10.8111 890.315 27.1745L884.742 29.0901L885.206 26.5216ZM949.657 11.5044C1004.07 -12.7977 1108.5 6.11065 1148.94 47.5889L1151.92 50.642L1145.21 48.7311C1084.33 31.3975 1020.56 19.4393 966.297 15.1832C944.775 13.4951 945.059 13.5579 949.657 11.5044ZM986.692 6.35818C1000.55 4.43778 1023.98 4.00274 1037.11 5.42228C1042.91 6.0497 1048.04 6.13313 1048.51 5.60768C1049.42 4.59616 1039.18 3.35795 1020.71 2.24708C1006.64 1.40054 983.109 3.62039 972.337 6.81035C961.99 9.87459 960.718 11.0383 969.78 9.14981C973.309 8.41452 980.919 7.15828 986.692 6.35818Z" stroke="black"/>
<path d="M1 651.5L1010.35 96C1031.86 100.335 1043.27 102.2 1061.87 104L1439 443V834.5C877.478 784.832 562.636 776.894 1 849V651.5Z" stroke="black"/>
</svg>
