<?xml version="1.0" encoding="UTF-8" standalone="no"?>
<svg
   width="1441.3361"
   height="850.31146"
   viewBox="0 0 1441.3361 850.31146"
   fill="none"
   version="1.1"
   id="svg2"
   preserveAspectRatio="none"
   sodipodi:docname="Vector69.svg"
   inkscape:version="1.3.2 (1:1.3.2+202311252150+091e20ef0f)"
   inkscape:export-filename="Vector69.svg"
   inkscape:export-xdpi="96"
   inkscape:export-ydpi="96"
   xmlns:inkscape="http://www.inkscape.org/namespaces/inkscape"
   xmlns:sodipodi="http://sodipodi.sourceforge.net/DTD/sodipodi-0.dtd"
   xmlns="http://www.w3.org/2000/svg"
   xmlns:svg="http://www.w3.org/2000/svg">
  <defs
     id="defs2" />
  <sodipodi:namedview
     id="namedview2"
     pagecolor="#ffffff"
     bordercolor="#666666"
     borderopacity="1.0"
     inkscape:showpageshadow="2"
     inkscape:pageopacity="0.0"
     inkscape:pagecheckerboard="0"
     inkscape:deskcolor="#d1d1d1"
     showgrid="false"
     inkscape:zoom="3.4993046"
     inkscape:cx="1017.4879"
     inkscape:cy="40.865262"
     inkscape:window-width="1600"
     inkscape:window-height="771"
     inkscape:window-x="0"
     inkscape:window-y="34"
     inkscape:window-maximized="1"
     inkscape:current-layer="svg2" />
  <path
     d="m 1006.318,91.486468 c -15.386,-4.4915 -19.83,-7.3194 -36.189,-23.0267 -17.636,-16.933 -17.902,-17.7826 -6.121,-19.4911 39.93,-5.7905 166.36,20.393 166.41,34.4628 0.01,2.9169 -37.13,18.756602 -45.52,19.414602 -14.4,1.128 -56.81,-5.002502 -78.58,-11.359602 z m 60.77,9.754602 c 27.49,1.248 22.54,-5.351802 -10.21,-13.628102 -44.12,-11.1445 -84.322,-9.5872 -51.4,1.9907 10.9,3.8338 49.24,11.075402 61.61,11.637402 z M 947.202,67.149268 c -121.515,-37.0788 -54.727,-55.4258 100.226,-27.5329 157.15,28.2879 213.44,69.549702 82.89,60.754702 -22.29,-1.501902 -22.31,-1.515002 -8.79,-7.501702 28,-12.4037 1.28,-26.6139 -76.38,-40.6231 -73.826,-13.3183 -106.12,-9.6587 -86.469,9.7988 12.327,12.2062 11.606,11.0778 6.443,10.0713 -2.5,-0.4872 -10.564,-2.7224 -17.92,-4.9671 z m -17.934,-21.1717 c 0.371,-2.058 -8.597,-4.783 -14.202,-4.3152 -1.47,0.1227 -2.474,0.728 -2.231,1.3451 0.575,1.4629 16.195,4.286 16.433,2.9701 z m 246,44.399 c 0.27,-1.4926 -2.58,-2.9436 -7.54,-3.8388 -4.95,-0.8952 -8.13,-0.5322 -8.4,0.9604 -0.1,0.5594 3.4,1.6647 7.79,2.4562 4.38,0.7916 8.05,0.9816 8.15,0.4222 z m -189.997,-50.8901 c 0.862,0.1555 1.659,-0.2298 1.772,-0.8562 0.117,-0.6508 -3.211,-1.7557 -7.767,-2.5781 -4.385,-0.7916 -8.058,-0.9608 -8.164,-0.376 -0.24,1.3301 4.8,3.1706 9.24,3.374 1.844,0.0845 4.058,0.2808 4.919,0.4363 z m 138.437,23.816 c 0.12,-0.6508 -3.21,-1.7557 -7.76,-2.5781 -4.56,-0.8224 -8.06,-0.9511 -8.18,-0.3003 -0.12,0.6508 3.21,1.7557 7.76,2.5781 4.56,0.8224 8.06,0.9511 8.18,0.3003 z m -70.47,-16.25 c 1.54,-0.003 2.85,-0.0153 2.96,-0.6417 0.12,-0.6508 -3.21,-1.7557 -7.77,-2.5781 -4.38,-0.7916 -8.05,-0.9592 -8.16,-0.3725 -0.2,1.119 5.92,2.9056 8.63,3.2018 1.06,0.1151 2.93,0.3932 4.34,0.3905 z m -167.364,-21.2718 c 4.947,-27.4070496 241.804,7.3008 307.594,45.0731 8.46,4.858 11.97,8.7412 11.3,12.4954 l -0.47,2.5686 -4.55,-3.7435 c -38.88,-31.9775 -261.156,-72.1041 -308.765,-55.7407 l -5.573,1.9156 z m 64.451,-15.0172 c 54.413,-24.3021 158.843,-5.3937496 199.283,36.0845 l 2.98,3.0531 -6.71,-1.9109 c -60.88,-17.3336 -124.65,-29.2918 -178.913,-33.5479 -21.522,-1.6881 -21.238,-1.6253 -16.64,-3.6788 z M 987.36,5.6172484 c 13.855,-1.9204 37.288,-2.35544 50.418,-0.9359 5.8,0.62742 10.93,0.71085 11.4,0.1854 0.91,-1.01152 -9.33,-2.24973 -27.8,-3.3606 -14.07,-0.84653997 -37.601,1.37331 -48.373,4.56327 -10.347,3.06424 -11.619,4.2279496 -2.557,2.33946 3.529,-0.73529 11.139,-1.99153 16.912,-2.79163 z"
     fill="#000000"
     id="path1"
     inkscape:export-filename="Vector69.svg"
     inkscape:export-xdpi="96"
     inkscape:export-ydpi="96"
     style="stroke-width:0.966552;stroke-dasharray:none"
     sodipodi:nodetypes="ccccccccccccccccsccscccccccscscssscscssccccscccccsccccccscscccsss" />
  <path
     d="M 3.3657474,848.69598 C 2.8002003,848.55059 2.2342857,848.40493 1.668,848.25898 V 650.75896 L 1011.0186,95.259075 c 21.5098,4.335023 32.9197,6.200025 51.5202,8.000025 l 377.1293,338.99996 v 391.49999 c -0.526,2.83779 0.078,12.01755 -1.5749,14.44885"
     fill="#52575D"
     id="path2"
     style="fill:#4c5056;fill-opacity:1;stroke:#4c5056;stroke-width:3.336;stroke-dasharray:none"
     sodipodi:nodetypes="cccccccc" />
  <path
     style="fill:#e6e6e6;stroke:none;stroke-width:0.276213;stroke-dasharray:none"
     d="m 965.71669,8.7017531 c 1.93624,-0.9120232 9.2414,-3.0645131 13.00258,-3.8312563 9.92837,-2.0239649 23.69373,-3.3135904 35.43563,-3.3198397 10.9239,-0.00581 31.5962,1.7633487 34.2139,2.9280655 1.3426,0.5974259 -4.449,0.605092 -10.6378,0.014081 -6.7815,-0.6476113 -31.667,-0.7443458 -39.29352,-0.1527409 -8.15237,0.6323994 -18.60015,2.0886519 -28.00557,3.9035233 -1.96467,0.3791045 -4.08652,0.7584259 -4.71522,0.8429364 l -1.14308,0.1536553 z"
     id="path4"
     sodipodi:nodetypes="sssssssscs" />
  <path
     style="fill:#a0a0a0;stroke:none;stroke-width:0.276213;stroke-dasharray:none"
     d="m 922.85103,45.664599 c -4.91171,-0.75623 -9.5321,-2.102382 -9.77396,-2.847644 -0.31636,-0.974838 4.18087,-1.300503 7.96275,-0.576619 4.14813,0.793986 7.95529,2.450118 7.95529,3.460585 0,0.542619 -2.47904,0.527964 -6.14408,-0.03632 z"
     id="path5"
     sodipodi:nodetypes="ssssss" />
  <path
     style="fill:#a0a0a0;stroke:none;stroke-width:0.276213;stroke-dasharray:none"
     d="m 982.14853,39.081307 c -2.81971,-0.214775 -5.94483,-0.747946 -7.56145,-1.290046 -1.7635,-0.59135 -3.29785,-1.509287 -3.29785,-1.972956 0,-0.723659 6.78718,-0.02213 11.55355,1.194184 5.35451,1.366399 4.97391,2.500559 -0.69425,2.068818 z"
     id="path6"
     sodipodi:nodetypes="sssss" />
  <path
     style="fill:#a0a0a0;stroke:none;stroke-width:0.276213;stroke-dasharray:none"
     d="m 1050.0192,46.658667 c -4.1457,-0.521981 -9.5734,-2.297945 -9.5734,-3.132443 0,-0.8537 9.1517,0.396522 13.3996,1.830531 3.8364,1.295097 1.7521,2.004289 -3.8262,1.301912 z"
     id="path7"
     sodipodi:nodetypes="ssss" />
  <path
     style="fill:#a0a0a0;stroke:none;stroke-width:0.276213;stroke-dasharray:none"
     d="m 1065.0221,100.96923 c -11.2965,-0.92258 -41.2503,-6.421985 -54.1642,-9.944354 -9.3584,-2.552607 -17.27853,-6.366779 -17.27853,-8.321043 0,-3.253383 17.15613,-3.312571 37.64853,-0.129886 25.7236,3.995134 53.5124,12.429307 53.5124,16.241518 0,0.640003 -1.1872,1.335495 -3.083,1.806105 -2.0563,0.51044 -12.0776,0.71988 -16.6352,0.34766 z"
     id="path8"
     sodipodi:nodetypes="sssssss" />
  <path
     style="fill:#a0a0a0;stroke:none;stroke-width:0.276213;stroke-dasharray:none"
     d="m 1116.318,62.958826 c -3.5669,-0.62701 -6.5013,-1.406485 -7.7337,-2.054352 l -0.8394,-0.441238 0.8444,-0.213126 c 2.3555,-0.594571 14.3046,1.809289 14.6649,2.950234 0.1691,0.535237 -3.181,0.418588 -6.9362,-0.241518 z"
     id="path9"
     sodipodi:nodetypes="sscsss" />
  <path
     style="fill:#f9f9f9;stroke:none;stroke-width:0.276213;stroke-dasharray:none"
     d="m 1169.6143,90.225833 c -5.3809,-0.87648 -10.0019,-2.179193 -10.0019,-2.819636 0,-0.791255 1.2295,-1.125484 4.0008,-1.087558 5.1588,0.0706 11.4308,2.097167 11.4308,3.693484 0,0.323555 -0.4876,0.399866 -2.3576,0.368998 -1.2967,-0.0214 -2.6791,-0.09128 -3.0721,-0.155288 z"
     id="path10"
     sodipodi:nodetypes="ssssss" />
  <path
     style="fill:#a0a0a0;stroke:none;stroke-width:0.276213;stroke-dasharray:none"
     d="m 1116.318,62.815772 c -2.4891,-0.440661 -7.0875,-1.683217 -7.8259,-2.11466 -0.7581,-0.443031 3.2297,-0.338785 6.1113,0.159755 3.3214,0.574622 6.918,1.487705 7.8439,1.991363 0.6718,0.365415 0.5491,0.395554 -1.5569,0.382471 -1.2574,-0.0078 -3.315,-0.19633 -4.5724,-0.418929 z"
     id="path11"
     sodipodi:nodetypes="ssssss" />
  <path
     style="fill:#f9f9f9;stroke:none;stroke-width:0.276213;stroke-dasharray:none"
     d="m 1116.318,62.815772 c -2.6074,-0.461596 -7.1386,-1.700659 -7.8259,-2.139987 -0.3271,-0.209138 0.4118,-0.257143 2.5392,-0.164958 3.2055,0.138908 9.0613,1.305045 11.0022,2.191002 l 1.143,0.521799 -2.2861,-0.0016 c -1.2574,-8.6e-4 -3.315,-0.183692 -4.5724,-0.406291 z"
     id="path12"
     sodipodi:nodetypes="sssscsss" />
  <path
     style="fill:#f9f9f9;stroke:none;stroke-width:0.276213;stroke-dasharray:none"
     d="m 1048.5759,46.279478 c -3.9382,-0.715411 -8.1516,-2.247134 -7.6263,-2.772442 0.8255,-0.825524 14.6421,1.951627 14.6421,2.943082 0,0.365325 -4.6939,0.251159 -7.0158,-0.17064 z"
     id="path13"
     sodipodi:nodetypes="ssss" />
  <path
     style="fill:#f9f9f9;stroke:none;stroke-width:0.276213;stroke-dasharray:none"
     d="m 1062.1409,100.54652 c -10.9566,-1.261112 -34.1704,-5.507906 -46.6756,-8.538953 -11.6765,-2.830211 -21.60016,-7.101901 -21.60016,-9.29796 0,-0.736265 0.53033,-1.072032 2.5927,-1.6415 1.54138,-0.425613 3.03157,-0.507171 9.26676,-0.507171 7.7244,0 11.5337,0.272338 20.4142,1.459482 2.8976,0.387346 5.4374,0.639399 5.644,0.560117 0.2066,-0.07928 0.3757,-0.03615 0.3757,0.09584 0,0.131992 0.6751,0.32711 1.5003,0.433595 3.0321,0.391288 17.0997,3.322293 22.7379,4.737488 16.2621,4.081799 28.0579,8.660281 28.0579,10.890556 0,0.843734 -2.1229,1.671866 -5.0849,1.983566 -3.5448,0.37304 -13.3308,0.27361 -17.2288,-0.17506 z"
     id="path14"
     sodipodi:nodetypes="sssssssssssss" />
  <path
     style="fill:#f9f9f9;stroke:none;stroke-width:0.276213;stroke-dasharray:none"
     d="m 981.21487,38.94498 c -0.35095,-0.09853 -1.66686,-0.335637 -2.92425,-0.526899 -2.47699,-0.376773 -4.93692,-1.142269 -6.08223,-1.892703 -0.62008,-0.406298 -0.65742,-0.50856 -0.26573,-0.727765 1.33174,-0.745278 14.17192,1.726569 14.31092,2.754977 0.0451,0.333998 -4.09762,0.656617 -5.03871,0.39239 z"
     id="path15"
     sodipodi:nodetypes="ssssss" />
  <path
     style="fill:#f9f9f9;stroke:none;stroke-width:0.276213;stroke-dasharray:none"
     d="m 924.13633,45.768309 c 3.7e-4,-0.117881 -0.33749,-0.214328 -0.75079,-0.214328 -2.18646,0 -10.10784,-2.241009 -10.10784,-2.859572 0,-0.778623 5.79444,-0.770613 9.1093,0.01259 2.53731,0.599493 6.08486,2.160381 6.25756,2.753262 0.0674,0.231236 -0.61556,0.363955 -2.20567,0.428656 -1.26678,0.05154 -2.30293,-0.0027 -2.30256,-0.12061 z"
     id="path16"
     sodipodi:nodetypes="ssssssss" />
  <path
     style="fill:#f9f9f9;stroke:none;stroke-width:0.276213;stroke-dasharray:none"
     d="m 967.00266,8.3676202 c 1.07286,-0.4609042 7.99118,-2.5358173 8.4551,-2.5358173 0.22209,0 0.4038,-0.1361865 0.4038,-0.3026364 0,-0.1664499 0.11271,-0.2329823 0.25045,-0.1478494 0.13775,0.085133 1.39157,-0.094065 2.78627,-0.3982177 2.38032,-0.519094 12.02748,-2.0505441 12.96646,-2.0583765 0.23576,-0.00197 1.52173,-0.12999 2.85771,-0.2844965 1.33598,-0.1545065 2.62195,-0.2830656 2.85771,-0.2856868 0.23576,-0.00262 2.22902,-0.1242339 4.42944,-0.2702504 4.1135,-0.2729595 18.3973,-0.3354663 22.7188,-0.099419 1.336,0.072972 4.6795,0.3112098 7.4301,0.5294162 2.7505,0.2182065 5.1939,0.4025219 5.4296,0.4095897 1.1434,0.034277 9.1075,1.2227757 9.8591,1.4712922 1.0378,0.3431222 -5.9207,0.2156303 -15.7174,-0.287972 -7.453,-0.3831223 -31.6117,-0.1873662 -35.57849,0.2882889 -1.33598,0.1601976 -3.20064,0.3603236 -4.14368,0.4447244 -4.37759,0.3917867 -21.11784,2.9833668 -22.43303,3.4728863 -0.23576,0.087751 -1.07164,0.2049744 -1.85751,0.2604963 -1.22138,0.08629 -1.32512,0.056382 -0.71443,-0.205972 z"
     id="path17"
     sodipodi:nodetypes="sssssssssssssssssss" />
</svg>
