<?xml version="1.0" encoding="UTF-8" standalone="no"?>
<svg
   width="1438"
   height="849"
   viewBox="0 0 1438 849"
   fill="none"
   version="1.1"
   id="svg2"
   sodipodi:docname="Vector2.svg"
   inkscape:version="1.3.2 (1:1.3.2+202311252150+091e20ef0f)"
   xmlns:inkscape="http://www.inkscape.org/namespaces/inkscape"
   xmlns:sodipodi="http://sodipodi.sourceforge.net/DTD/sodipodi-0.dtd"
   xmlns="http://www.w3.org/2000/svg"
   xmlns:svg="http://www.w3.org/2000/svg">
  <defs
     id="defs2" />
  <sodipodi:namedview
     id="namedview2"
     pagecolor="#ffffff"
     bordercolor="#666666"
     borderopacity="1.0"
     inkscape:showpageshadow="2"
     inkscape:pageopacity="0.0"
     inkscape:pagecheckerboard="0"
     inkscape:deskcolor="#d1d1d1"
     showgrid="false"
     inkscape:zoom="3.4993046"
     inkscape:cx="1017.4879"
     inkscape:cy="40.865262"
     inkscape:window-width="1600"
     inkscape:window-height="771"
     inkscape:window-x="0"
     inkscape:window-y="34"
     inkscape:window-maximized="1"
     inkscape:current-layer="svg2" />
  <path
     d="M1004.65 92.2274C989.264 87.7359 984.82 84.908 968.461 69.2007C950.825 52.2677 950.559 51.4181 962.34 49.7096C1002.27 43.9191 1128.7 70.1026 1128.75 84.1724C1128.76 87.0893 1091.62 102.929 1083.23 103.587C1068.83 104.715 1026.42 98.5845 1004.65 92.2274ZM1065.42 101.982C1092.91 103.23 1087.96 96.6302 1055.21 88.3539C1011.09 77.2094 970.888 78.7667 1003.81 90.3446C1014.71 94.1784 1053.05 101.42 1065.42 101.982ZM945.534 67.8902C824.019 30.8114 890.807 12.4644 1045.76 40.3573C1202.91 68.6452 1259.2 109.907 1128.65 101.112C1106.36 99.6101 1106.34 99.597 1119.86 93.6103C1147.86 81.2066 1121.14 66.9964 1043.48 52.9872C969.654 39.6689 937.36 43.3285 957.011 62.786C969.338 74.9922 968.617 73.8638 963.454 72.8573C960.954 72.3701 952.89 70.1349 945.534 67.8902ZM927.6 46.7185C927.971 44.6605 919.003 41.9355 913.398 42.4033C911.928 42.526 910.924 43.1313 911.167 43.7484C911.742 45.2113 927.362 48.0344 927.6 46.7185ZM1173.6 91.1175C1173.87 89.6249 1171.02 88.1739 1166.06 87.2787C1161.11 86.3835 1157.93 86.7465 1157.66 88.2391C1157.56 88.7985 1161.06 89.9038 1165.45 90.6953C1169.83 91.4869 1173.5 91.6769 1173.6 91.1175ZM983.603 40.2274C984.465 40.3829 985.262 39.9976 985.375 39.3712C985.492 38.7204 982.164 37.6155 977.608 36.7931C973.223 36.0015 969.55 35.8323 969.444 36.4171C969.204 37.7472 974.244 39.5877 978.684 39.7911C980.528 39.8756 982.742 40.0719 983.603 40.2274ZM1122.04 64.0434C1122.16 63.3926 1118.83 62.2877 1114.28 61.4653C1109.72 60.6429 1106.22 60.5142 1106.1 61.165C1105.98 61.8158 1109.31 62.9207 1113.86 63.7431C1118.42 64.5655 1121.92 64.6942 1122.04 64.0434ZM1051.57 47.7934C1053.11 47.7904 1054.42 47.7781 1054.53 47.1517C1054.65 46.5009 1051.32 45.396 1046.76 44.5736C1042.38 43.782 1038.71 43.6144 1038.6 44.2011C1038.4 45.3201 1044.52 47.1067 1047.23 47.4029C1048.29 47.518 1050.16 47.7961 1051.57 47.7934ZM884.206 26.5216C889.153 -0.88545 1126.01 33.8224 1191.8 71.5947C1200.26 76.4527 1203.77 80.3359 1203.1 84.0901L1202.63 86.6587L1198.08 82.9152C1159.2 50.9377 936.924 10.8111 889.315 27.1745L883.742 29.0901L884.206 26.5216ZM948.657 11.5044C1003.07 -12.7977 1107.5 6.11065 1147.94 47.5889L1150.92 50.642L1144.21 48.7311C1083.33 31.3975 1019.56 19.4393 965.297 15.1832C943.775 13.4951 944.059 13.5579 948.657 11.5044ZM985.692 6.35818C999.547 4.43778 1022.98 4.00274 1036.11 5.42228C1041.91 6.0497 1047.04 6.13313 1047.51 5.60768C1048.42 4.59616 1038.18 3.35795 1019.71 2.24708C1005.64 1.40054 982.109 3.62039 971.337 6.81035C960.99 9.87459 959.718 11.0383 968.78 9.14981C972.309 8.41452 979.919 7.15828 985.692 6.35818Z"
     fill="black"
     id="path1" />
  <path
     d="M0 651.5L1009.35 96C1030.86 100.335 1042.27 102.2 1060.87 104L1438 443V834.5C876.478 784.832 561.636 776.894 0 849V651.5Z"
     fill="#52575D"
     id="path2" />
  <path
     style="fill:#e6e6e6;stroke:none;stroke-width:0.285771"
     d="m 964.04869,9.4426847 c 1.93624,-0.9120232 9.2414,-3.0645131 13.00258,-3.8312563 9.92837,-2.0239649 23.69373,-3.3135904 35.43563,-3.3198397 10.9239,-0.00581 31.5962,1.7633487 34.2139,2.9280655 1.3426,0.5974259 -4.449,0.605092 -10.6378,0.014081 -6.7815,-0.6476113 -31.667,-0.7443458 -39.29352,-0.1527409 -8.15237,0.6323994 -18.60015,2.0886519 -28.00557,3.9035233 -1.96467,0.3791045 -4.08652,0.7584259 -4.71522,0.8429364 l -1.14308,0.1536553 z"
     id="path4" />
  <path
     style="fill:#a0a0a0;stroke:none;stroke-width:0.285771"
     d="m 921.18303,46.405531 c -4.91171,-0.75623 -9.5321,-2.102382 -9.77396,-2.847644 -0.31636,-0.974838 4.18087,-1.300503 7.96275,-0.576619 4.14813,0.793986 7.95529,2.450118 7.95529,3.460585 0,0.542619 -2.47904,0.527964 -6.14408,-0.03632 z"
     id="path5" />
  <path
     style="fill:#a0a0a0;stroke:none;stroke-width:0.285771"
     d="m 980.48053,39.822239 c -2.81971,-0.214775 -5.94483,-0.747946 -7.56145,-1.290046 -1.7635,-0.59135 -3.29785,-1.509287 -3.29785,-1.972956 0,-0.723659 6.78718,-0.02213 11.55355,1.194184 5.35451,1.366399 4.97391,2.500559 -0.69425,2.068818 z"
     id="path6" />
  <path
     style="fill:#a0a0a0;stroke:none;stroke-width:0.285771"
     d="m 1048.3512,47.399599 c -4.1457,-0.521981 -9.5734,-2.297945 -9.5734,-3.132443 0,-0.8537 9.1517,0.396522 13.3996,1.830531 3.8364,1.295097 1.7521,2.004289 -3.8262,1.301912 z"
     id="path7" />
  <path
     style="fill:#a0a0a0;stroke:none;stroke-width:0.285771"
     d="m 1063.3541,101.71016 c -11.2965,-0.92258 -41.2503,-6.421983 -54.1642,-9.944352 -9.35843,-2.552607 -17.27853,-6.366779 -17.27853,-8.321043 0,-3.253383 17.15613,-3.312571 37.64853,-0.129886 25.7236,3.995134 53.5124,12.429307 53.5124,16.241518 0,0.640003 -1.1872,1.335493 -3.083,1.806103 -2.0563,0.51044 -12.0776,0.71988 -16.6352,0.34766 z"
     id="path8" />
  <path
     style="fill:#a0a0a0;stroke:none;stroke-width:0.285771"
     d="m 1114.65,63.699758 c -3.5669,-0.62701 -6.5013,-1.406485 -7.7337,-2.054352 l -0.8394,-0.441238 0.8444,-0.213126 c 2.3555,-0.594571 14.3046,1.809289 14.6649,2.950234 0.1691,0.535237 -3.181,0.418588 -6.9362,-0.241518 z"
     id="path9" />
  <path
     style="fill:#f9f9f9;stroke:none;stroke-width:0.285771"
     d="m 1167.9463,90.966765 c -5.3809,-0.87648 -10.0019,-2.179193 -10.0019,-2.819636 0,-0.791255 1.2295,-1.125484 4.0008,-1.087558 5.1588,0.0706 11.4308,2.097167 11.4308,3.693484 0,0.323555 -0.4876,0.399866 -2.3576,0.368998 -1.2967,-0.0214 -2.6791,-0.09128 -3.0721,-0.155288 z"
     id="path10" />
  <path
     style="fill:#a0a0a0;stroke:none;stroke-width:0.285771"
     d="m 1114.65,63.556704 c -2.4891,-0.440661 -7.0875,-1.683217 -7.8259,-2.11466 -0.7581,-0.443031 3.2297,-0.338785 6.1113,0.159755 3.3214,0.574622 6.918,1.487705 7.8439,1.991363 0.6718,0.365415 0.5491,0.395554 -1.5569,0.382471 -1.2574,-0.0078 -3.315,-0.19633 -4.5724,-0.418929 z"
     id="path11" />
  <path
     style="fill:#f9f9f9;stroke:none;stroke-width:0.285771"
     d="m 1114.65,63.556704 c -2.6074,-0.461596 -7.1386,-1.700659 -7.8259,-2.139987 -0.3271,-0.209138 0.4118,-0.257143 2.5392,-0.164958 3.2055,0.138908 9.0613,1.305045 11.0022,2.191002 l 1.143,0.521799 -2.2861,-0.0016 c -1.2574,-8.6e-4 -3.315,-0.183692 -4.5724,-0.406291 z"
     id="path12" />
  <path
     style="fill:#f9f9f9;stroke:none;stroke-width:0.285771"
     d="m 1046.9079,47.02041 c -3.9382,-0.715411 -8.1516,-2.247134 -7.6263,-2.772442 0.8255,-0.825524 14.6421,1.951627 14.6421,2.943082 0,0.365325 -4.6939,0.251159 -7.0158,-0.17064 z"
     id="path13" />
  <path
     style="fill:#f9f9f9;stroke:none;stroke-width:0.285771"
     d="m 1060.4729,101.28745 c -10.9566,-1.26111 -34.1704,-5.507904 -46.6756,-8.538951 -11.6765,-2.830211 -21.60016,-7.101901 -21.60016,-9.29796 0,-0.736265 0.53033,-1.072032 2.5927,-1.6415 1.54138,-0.425613 3.03157,-0.507171 9.26676,-0.507171 7.7244,0 11.5337,0.272338 20.4142,1.459482 2.8976,0.387346 5.4374,0.639399 5.644,0.560117 0.2066,-0.07928 0.3757,-0.03615 0.3757,0.09584 0,0.131992 0.6751,0.32711 1.5003,0.433595 3.0321,0.391288 17.0997,3.322293 22.7379,4.737488 16.2621,4.081799 28.0579,8.660281 28.0579,10.890556 0,0.843734 -2.1229,1.671864 -5.0849,1.983564 -3.5448,0.37304 -13.3308,0.27361 -17.2288,-0.17506 z"
     id="path14" />
  <path
     style="fill:#f9f9f9;stroke:none;stroke-width:0.285771"
     d="m 979.54687,39.685912 c -0.35095,-0.09853 -1.66686,-0.335637 -2.92425,-0.526899 -2.47699,-0.376773 -4.93692,-1.142269 -6.08223,-1.892703 -0.62008,-0.406298 -0.65742,-0.50856 -0.26573,-0.727765 1.33174,-0.745278 14.17192,1.726569 14.31092,2.754977 0.0451,0.333998 -4.09762,0.656617 -5.03871,0.39239 z"
     id="path15" />
  <path
     style="fill:#f9f9f9;stroke:none;stroke-width:0.285771"
     d="m 922.46833,46.509241 c 3.7e-4,-0.117881 -0.33749,-0.214328 -0.75079,-0.214328 -2.18646,0 -10.10784,-2.241009 -10.10784,-2.859572 0,-0.778623 5.79444,-0.770613 9.1093,0.01259 2.53731,0.599493 6.08486,2.160381 6.25756,2.753262 0.0674,0.231236 -0.61556,0.363955 -2.20567,0.428656 -1.26678,0.05154 -2.30293,-0.0027 -2.30256,-0.12061 z"
     id="path16" />
  <path
     style="fill:#f9f9f9;stroke:none;stroke-width:0.285771"
     d="m 965.33466,9.1085518 c 1.07286,-0.4609042 7.99118,-2.5358173 8.4551,-2.5358173 0.22209,0 0.4038,-0.1361865 0.4038,-0.3026364 0,-0.1664499 0.11271,-0.2329823 0.25045,-0.1478494 0.13775,0.085133 1.39157,-0.094065 2.78627,-0.3982177 2.38032,-0.519094 12.02748,-2.0505441 12.96646,-2.0583765 0.23576,-0.00197 1.52173,-0.12999 2.85771,-0.2844965 1.33598,-0.1545065 2.62195,-0.2830656 2.85771,-0.2856868 0.23576,-0.00262 2.22902,-0.1242339 4.42944,-0.2702504 4.1135,-0.2729595 18.3973,-0.3354663 22.7188,-0.099419 1.336,0.072972 4.6795,0.3112098 7.4301,0.5294162 2.7505,0.2182065 5.1939,0.4025219 5.4296,0.4095897 1.1434,0.034277 9.1075,1.2227757 9.8591,1.4712922 1.0378,0.3431222 -5.9207,0.2156303 -15.7174,-0.287972 -7.453,-0.3831223 -31.61173,-0.1873662 -35.57849,0.2882889 -1.33598,0.1601976 -3.20064,0.3603236 -4.14368,0.4447244 -4.37759,0.3917867 -21.11784,2.9833668 -22.43303,3.4728863 -0.23576,0.087751 -1.07164,0.2049744 -1.85751,0.2604963 -1.22138,0.08629 -1.32512,0.056382 -0.71443,-0.205972 z"
     id="path17" />
</svg>
